<?xml version="1.0" encoding="utf-8"?>
<!-- Generator: Adobe Illustrator 15.0.0, SVG Export Plug-In  -->
<!DOCTYPE svg PUBLIC "-//W3C//DTD SVG 1.1//EN" "http://www.w3.org/Graphics/SVG/1.1/DTD/svg11.dtd" [
	<!ENTITY ns_flows "http://ns.adobe.com/Flows/1.0/">
]>
<svg version="1.1"
	 xmlns="http://www.w3.org/2000/svg" xmlns:xlink="http://www.w3.org/1999/xlink" xmlns:a="http://ns.adobe.com/AdobeSVGViewerExtensions/3.0/"
	 x="0px" y="0px" width="1684px" height="1191px" viewBox="-277.435 -30.663 1684 1191"
	 enable-background="new -277.435 -30.663 1684 1191" xml:space="preserve">
<defs>
</defs>
<circle stroke="#00FF00" stroke-width="3" stroke-miterlimit="10" cx="525.451" cy="333.08" r="331.58"/>
<path fill="#00FF00" d="M278.543,152.927C385.895-11.529,581.895,34.471,581.895,34.471s-82.619-2.594-172,31.667
	C354.807,87.253,312.008,122.454,278.543,152.927z"/>
<path fill-rule="evenodd" clip-rule="evenodd" stroke="#00FF00" stroke-width="2" stroke-miterlimit="10" d="M141.395,495.304
	c-3.5-12-0.73-13.117-12.948-51.309s-3.366-77.842-60.807-73.848c20.95,71.797,27.125,203.682,120.771,223.656
	c-0.723-5.283-13.37-18.384-16.267-26.335C162.427,540.792,144.091,504.548,141.395,495.304z"/>
<path fill-rule="evenodd" clip-rule="evenodd" stroke="#00FF00" stroke-width="2" stroke-miterlimit="10" d="M119.514,389.012
	c1.963,18.974,12.392,35.827,15.822,49.596s7.339,27.35,8.496,34.898c5.479,36.798,27.465,98.062,65.284,123.005
	C178.789,527.804,190.319,417.241,119.514,389.012z"/>
<path fill-rule="evenodd" clip-rule="evenodd" stroke="#00FF00" stroke-width="2" stroke-miterlimit="10" d="M845.762,591.795
	c30.436-67.026,17.374-177.551,89.603-202.783C909.168,457.146,902.816,570.235,845.762,591.795z"/>
<path fill-rule="evenodd" clip-rule="evenodd" stroke="#00FF00" stroke-width="2" stroke-miterlimit="10" d="M836.331,695.545
	c23.836-42.162,179.959-102.809,117.897-169.772c22.171-42.279,39.659-89.242,94.318-99.034
	c-31.614,92.085-61.349,171.953-117.897,254.659c-39.741,58.122-152.631,78.957-183.92,150.908
	c-35.019,80.526,27.49,310.238,36.836,413.031c-58.163,0-120.463,28.044-174.488,0c12.263-148.038-28.054-413.613,19.755-512.064
	c36.245-74.641,140.217-82.359,207.499-122.613c46.262-27.679,90.48-99.605,134.152-64.252
	C962.311,612.554,870.488,633.813,836.331,695.545z"/>
<path fill-rule="evenodd" clip-rule="evenodd" stroke="#00FF00" stroke-width="2" stroke-miterlimit="10" d="M190.252,464.466
	c51.323,20.987,28.292,116.329,61.307,155.625c-12.661-6.203-25.066-12.661-37.727-18.864
	C213.461,550.862,180.37,509.519,190.252,464.466z"/>
<path fill-rule="evenodd" clip-rule="evenodd" stroke="#00FF00" stroke-width="2" stroke-miterlimit="10" d="M841.046,601.227
	c-10.318,6.974-25.386,9.197-33.011,18.864c17.87-34.033,7.92-136.68,56.591-155.625
	C871.575,524.863,839.165,545.898,841.046,601.227z"/>
<path fill-rule="evenodd" clip-rule="evenodd" stroke="#00FF00" stroke-width="2" stroke-miterlimit="10" d="M892.921,554.068
	c29.823-41.695,15.198-191.245,94.318-183.92C964.723,440.378,971.394,539.794,892.921,554.068z"/>
<path fill-rule="evenodd" clip-rule="evenodd" stroke="#00FF00" stroke-width="2" stroke-miterlimit="10" d="M80.377,539.525
	c3.748,5.297,20.902,43.517,26.23,53.112c2.9,5.223,6.954,10.157,14.079,16.917c0,0,3.788,5.8-0.25-1.125
	c-1.529-2.622-7.663-6.856-10.708-11.918c-4.265-7.089-15.516-34.435-26.807-56.57c19.366-11.996,32.996-5.487,64.307,39.863
	c14.729,21.333,35.333,9.333,66.604,30.855c63.205,43.501,160.018,42.055,202.784,108.465
	c59.901,93.021,21.953,387.685,36.416,540.213c-58.163,0-69.782,28.044-174.488,0c4.349-91.622,56.933-321.026,34.322-412.883
	c-18.14-73.694-143.631-101.03-188.636-165.057C61.149,591.654,40.877,518.053,1.617,426.739
	c59.523,8.072,78.885,61.999,100.25,108.228C92.412,532.772,83.573,537.699,80.377,539.525z"/>
<path fill="#00FF00" d="M935.561,540.56c-13.023,9.768-24,15.244-18,22.244s15,27,23,22s36.254-30.967,31.254-37.967
	S951.561,528.56,935.561,540.56z"/>
<path fill-rule="evenodd" clip-rule="evenodd" fill="#00FF00" d="M82.921,536.266c9.5-2.475,15.14,1.888,18.64,8.413
	s10.5,24.125-2.498,29.15L82.921,536.266z"/>
</svg>
