<?xml version="1.0" encoding="utf-8"?>
<!-- Generator: Adobe Illustrator 15.0.0, SVG Export Plug-In  -->
<!DOCTYPE svg PUBLIC "-//W3C//DTD SVG 1.1//EN" "http://www.w3.org/Graphics/SVG/1.1/DTD/svg11.dtd" [
	<!ENTITY ns_flows "http://ns.adobe.com/Flows/1.0/">
]>
<svg version="1.1"
	 xmlns="http://www.w3.org/2000/svg" xmlns:xlink="http://www.w3.org/1999/xlink" xmlns:a="http://ns.adobe.com/AdobeSVGViewerExtensions/3.0/"
	 x="0px" y="0px" width="1920px" height="1080px" viewBox="55 27.387 1920 1080" enable-background="new 55 27.387 1920 1080"
	 xml:space="preserve">
<defs>
</defs>
<line fill="none" stroke="#00FF00" stroke-miterlimit="10" x1="55" y1="0" x2="55" y2="1209.679"/>
<line fill="none" stroke="#00FF00" stroke-miterlimit="10" x1="183" y1="0" x2="183" y2="1209.679"/>
<line fill="none" stroke="#00FF00" stroke-miterlimit="10" x1="311" y1="0" x2="311" y2="1209.679"/>
<line fill="none" stroke="#00FF00" stroke-miterlimit="10" x1="439" y1="0" x2="439" y2="1209.679"/>
<line fill="none" stroke="#00FF00" stroke-miterlimit="10" x1="567" y1="0" x2="567" y2="1209.679"/>
<line fill="none" stroke="#00FF00" stroke-miterlimit="10" x1="695" y1="0" x2="695" y2="1209.679"/>
<line fill="none" stroke="#00FF00" stroke-miterlimit="10" x1="823" y1="0" x2="823" y2="1209.679"/>
<line fill="none" stroke="#00FF00" stroke-miterlimit="10" x1="951" y1="0" x2="951" y2="1209.679"/>
<line fill="none" stroke="#00FF00" stroke-miterlimit="10" x1="1079" y1="0" x2="1079" y2="1209.679"/>
<line fill="none" stroke="#00FF00" stroke-miterlimit="10" x1="1207" y1="0" x2="1207" y2="1209.679"/>
<line fill="none" stroke="#00FF00" stroke-miterlimit="10" x1="1335" y1="0" x2="1335" y2="1209.679"/>
<line fill="none" stroke="#00FF00" stroke-miterlimit="10" x1="1463" y1="0" x2="1463" y2="1209.679"/>
<line fill="none" stroke="#00FF00" stroke-miterlimit="10" x1="1591" y1="0" x2="1591" y2="1209.679"/>
<line fill="none" stroke="#00FF00" stroke-miterlimit="10" x1="1719" y1="0" x2="1719" y2="1209.679"/>
<line fill="none" stroke="#00FF00" stroke-miterlimit="10" x1="1847" y1="0" x2="1847" y2="1209.679"/>
<line fill="none" stroke="#00FF00" stroke-miterlimit="10" x1="1975" y1="0" x2="1975" y2="1209.679"/>
<line fill="none" stroke="#00FF00" stroke-miterlimit="10" x1="0" y1="55.387" x2="2074" y2="55.387"/>
<line fill="none" stroke="#00FF00" stroke-miterlimit="10" x1="0" y1="183.387" x2="2074" y2="183.387"/>
<line fill="none" stroke="#00FF00" stroke-miterlimit="10" x1="0" y1="311.387" x2="2074" y2="311.387"/>
<line fill="none" stroke="#00FF00" stroke-miterlimit="10" x1="0" y1="439.387" x2="2074" y2="439.387"/>
<line fill="none" stroke="#00FF00" stroke-miterlimit="10" x1="0" y1="567.387" x2="2074" y2="567.387"/>
<line fill="none" stroke="#00FF00" stroke-miterlimit="10" x1="0" y1="695.387" x2="2074" y2="695.387"/>
<line fill="none" stroke="#00FF00" stroke-miterlimit="10" x1="0" y1="823.387" x2="2074" y2="823.387"/>
<line fill="none" stroke="#00FF00" stroke-miterlimit="10" x1="0" y1="951.387" x2="2074" y2="951.387"/>
<line fill="none" stroke="#00FF00" stroke-miterlimit="10" x1="0" y1="1079.387" x2="2074" y2="1079.387"/>
</svg>
