<?xml version="1.0" encoding="utf-8"?>
<!-- Generator: Adobe Illustrator 15.0.0, SVG Export Plug-In  -->
<!DOCTYPE svg PUBLIC "-//W3C//DTD SVG 1.1//EN" "http://www.w3.org/Graphics/SVG/1.1/DTD/svg11.dtd" [
	<!ENTITY ns_flows "http://ns.adobe.com/Flows/1.0/">
]>
<svg version="1.1"
	 xmlns="http://www.w3.org/2000/svg" xmlns:xlink="http://www.w3.org/1999/xlink" xmlns:a="http://ns.adobe.com/AdobeSVGViewerExtensions/3.0/"
	 x="0px" y="0px" width="1684px" height="1492px" viewBox="-403.342 -87.909 1684 1492"
	 enable-background="new -403.342 -87.909 1684 1492" xml:space="preserve">
<defs>
</defs>
<g id="XMLID_2_">
	<g>
		<path d="M709.221,279.825c1.33,18.67-2,54-2,67.34c0,13.33,11.33,60.67-13.34,148.67c-24.66,88-66.66,104-82.66,140
			s-23.34,24-35.34,92s-25.33,146.659-46,188.659c-20.66,42-109.33,196.67-193.33,372.67c-26.01,54.5-85.53,214.53-109.43,205.881
			c-30.53-11.04-208.3,0.43-225.46-36.521c-12.79-27.52,164.05-254.81,164.05-254.81c130.5-170.99,253.49-347.98,265.49-452.98
			c12-104.99,11.35-97.57,19.35-133.57s12-55,0-103c-12-48-64-196-68-228s3-67.5,13.5-99c8.53-25.6,11.78-50.2,15.39-58.53
			c-0.22,1-5.96,26.67-9.39,47.5c6,3.25,18.25-5.47,18.75-20.22s-6.35-25.06-9.35-27.31c0.82-1.9,1.67-2.94,2.6-2.94
			c5,0,23,24,20.5,40.5s-18,36.5-12.5,66s12,63,12,72s-2.5,28,2,26.5s4.5-31-0.5-55.5s-15-42.5-5-83s58-97.5,63-108.5
			c0.08-0.18,0.16-0.37,0.24-0.56l-1.49,4.06c0,0,8.75,7.25,15.75-12.25s1.75-24.5-0.5-29.25c4.431-0.81,11.87,13.61,13.57,21.88
			c7.05-13.15,13.32-24.77,18.47-35.18c-2.29,5.2-4.47,10.15-6.04,13.8c10.5,8,24.75-18.23,24.75-23.25c0-7.5-6.5-18-6.5-18
			s-1.12,2.49-2.819,6.32c0.97-2.6,1.84-5.13,2.569-7.57c6,7,5.5,8,8,18c0.69,2.78,0.66,9.11-0.109,17.51
			c-1.98,21.81-8.841,57.52-20.391,80.99c-16,32.5-21.5,35.5-23.5,45.5s14,94,13.5,104.5s0.5,24-2.5,29.5s14.5-1,15.5-31.5
			s-3.5-88.5-1.5-105.5s14-57.25,15-74c0.63-10.57,3.2-28.73,5.141-49.38c0.359-3.83,0.699-7.74,1-11.7
			c-0.49,8.45-0.841,17.08-0.641,22.58c9.5,2.25,14.75-3.25,16.5-11.5s-2.029-30.76-8.25-35.5c-0.85-0.65-1.569-1.11-2.189-1.44
			c11.14,1.18,20.06,8.91,27.189,43.44c8,38.75-5.75,118-3.08,142.66c2.66,24.67,19.33,112,25.33,139.34c6,27.33,8,75.33,20,75.33
			s20.67-108,26.67-139.33c6-31.34,9.33-63.34,33.33-62C720.551,202.495,707.881,261.165,709.221,279.825z M693.061,259.995
			c5.341,0,12.32-1.83,12.011-2.5c-0.311-0.66-0.19-38.5-0.021-42s-0.67-8.66-2-10.16s-7.5-0.17-11.5,0c-4,0.16-9,10.83-9.5,14.33
			s-1,38.67-1,38.67S687.721,259.995,693.061,259.995z M477.051,170.165c0.061-1.18,0.15-2.34,0.26-3.5
			c-6.02,23.44-9.1,49.3-4.76,91c5,48-8.5,60-3.5,59.5s7.74-34.75,7.5-69.75C476.311,212.895,475.051,206.165,477.051,170.165z"/>
		<path fill="#00FF00" d="M705.072,257.495c0.31,0.67-6.67,2.5-12.011,2.5c-5.34,0-12.01-1.66-12.01-1.66s0.5-35.17,1-38.67
			s5.5-14.17,9.5-14.33c4-0.17,10.17-1.5,11.5,0s2.17,6.66,2,10.16S704.761,256.834,705.072,257.495z"/>
		<path fill="#00FF00" d="M569.301,3.165c6.221,4.74,10,27.25,8.25,35.5s-7,13.75-16.5,11.5c-0.2-5.5,0.15-14.13,0.641-22.58
			c0.27-3.56,0.5-7.16,0.699-10.78c0.591-8.44,1.16-14.89,1.16-14.89s0.03-0.18,0.16-0.37c1.16,0,2.29,0.06,3.4,0.18
			C567.732,2.055,568.452,2.515,569.301,3.165z"/>
		<path fill="#1D1D1B" d="M563.711,1.544c0.311-0.46,1.16-1.03,3.4,0.18C566.001,1.604,564.872,1.544,563.711,1.544z"/>
		<path fill="#1D1D1B" d="M562.921,1.535c0.271,0,0.53,0,0.79,0.01c-0.13,0.19-0.16,0.37-0.16,0.37s-0.569,6.45-1.16,14.89
			C562.662,11.734,562.851,6.625,562.921,1.535z"/>
		<path fill="#1D1D1B" d="M562.391,16.805c-0.199,3.62-0.43,7.22-0.699,10.78C561.902,23.854,562.152,20.174,562.391,16.805z"/>
		<path fill="#00FF00" d="M551.801,4.915c0,0,6.5,10.5,6.5,18c0,5.02-14.25,31.25-24.75,23.25c1.57-3.65,3.75-8.6,6.04-13.8
			c3.79-7.66,6.96-14.66,9.391-21.13C550.681,7.404,551.801,4.915,551.801,4.915z"/>
		<path fill="#1D1D1B" d="M539.591,32.365c3.351-7.59,6.97-15.7,9.391-21.13C546.551,17.705,543.381,24.705,539.591,32.365z"/>
		<path fill="#00FF00" d="M507.551,45.665c2.25,4.75,7.5,9.75,0.5,29.25s-15.75,12.25-15.75,12.25l1.49-4.06L507.551,45.665z"/>
		<path fill="#1D1D1B" d="M507.551,45.665l-13.76,37.44C497.792,70.705,502.822,46.524,507.551,45.665z"/>
		<path fill="#00FF00" d="M411.452,128.604c3,2.25,9.85,12.56,9.35,27.31s-12.75,23.47-18.75,20.22c3.43-20.83,9.17-46.5,9.39-47.5
			c0,0,0,0,0-0.01C411.441,128.615,411.452,128.615,411.452,128.604z"/>
	</g>
	<g>
		<path fill="none" stroke="#00FF00" stroke-width="2" stroke-miterlimit="10" d="M493.792,83.104l13.76-37.44
			C502.822,46.524,497.792,70.705,493.792,83.104z"/>
		<path fill="none" stroke="#00FF00" stroke-width="2" stroke-miterlimit="10" d="M539.591,32.365c3.79-7.66,6.96-14.66,9.391-21.13
			C546.561,16.665,542.942,24.774,539.591,32.365z"/>
		<path fill="none" stroke="#00FF00" stroke-width="2" stroke-miterlimit="10" d="M563.711,1.544c1.16,0,2.29,0.06,3.4,0.18
			C564.872,0.515,564.022,1.084,563.711,1.544z"/>
		<path fill="none" stroke="#00FF00" stroke-width="2" stroke-miterlimit="10" d="M561.692,27.584c0.27-3.56,0.5-7.16,0.699-10.78
			C562.152,20.174,561.902,23.854,561.692,27.584z"/>
		<path fill="none" stroke="#00FF00" stroke-width="2" stroke-miterlimit="10" d="M563.711,1.544c-0.26-0.01-0.52-0.01-0.79-0.01
			c-0.07,5.09-0.26,10.2-0.53,15.27c0.591-8.44,1.16-14.89,1.16-14.89S563.582,1.734,563.711,1.544z"/>
		<path fill="none" stroke="#00FF00" stroke-width="2" stroke-miterlimit="10" d="M411.452,128.604c0,0.01-0.01,0.01-0.01,0.02
			c0,0.01,0,0.01,0,0.01c-3.61,8.33-6.86,32.93-15.39,58.53c-10.5,31.5-17.5,67-13.5,99s56,180,68,228c12,48,8,67,0,103
			s-7.35,28.58-19.35,133.57c-12,105-134.99,281.99-265.49,452.98c0,0-176.84,227.29-164.05,254.81
			c17.16,36.95,194.93,25.48,225.46,36.521c23.9,8.649,83.42-151.381,109.43-205.881c84-176,172.67-330.67,193.33-372.67
			c20.67-42,34-120.659,46-188.659s19.34-56,35.34-92s58-52,82.66-140c24.67-88,13.34-135.34,13.34-148.67
			c0-13.34,3.33-48.67,2-67.34c-1.34-18.66,11.33-77.33-12.67-78.66c-24-1.34-27.33,30.66-33.33,62
			c-6,31.33-14.67,139.33-26.67,139.33s-14-48-20-75.33c-6-27.34-22.67-114.67-25.33-139.34c-2.67-24.66,11.08-103.91,3.08-142.66
			c-7.13-34.53-16.05-42.26-27.189-43.44c0.62,0.33,1.34,0.79,2.189,1.44c6.221,4.74,10,27.25,8.25,35.5s-7,13.75-16.5,11.5
			c-0.2-5.5,0.15-14.13,0.641-22.58c-0.301,3.96-0.641,7.87-1,11.7c-1.94,20.65-4.511,38.81-5.141,49.38c-1,16.75-13,57-15,74
			s2.5,75,1.5,105.5s-18.5,37-15.5,31.5s2-19,2.5-29.5s-15.5-94.5-13.5-104.5s7.5-13,23.5-45.5
			c11.55-23.47,18.41-59.18,20.391-80.99c0.77-8.4,0.8-14.73,0.109-17.51c-2.5-10-2-11-8-18c-0.729,2.44-1.6,4.97-2.569,7.57
			c1.699-3.83,2.819-6.32,2.819-6.32s6.5,10.5,6.5,18c0,5.02-14.25,31.25-24.75,23.25c1.57-3.65,3.75-8.6,6.04-13.8
			c-5.149,10.41-11.42,22.03-18.47,35.18c-1.7-8.27-9.14-22.69-13.57-21.88c2.25,4.75,7.5,9.75,0.5,29.25s-15.75,12.25-15.75,12.25
			l1.49-4.06c-0.08,0.19-0.16,0.38-0.24,0.56c-5,11-53,68-63,108.5s0,58.5,5,83s5,54,0.5,55.5s-2-17.5-2-26.5s-6.5-42.5-12-72
			s10-49.5,12.5-66s-15.5-40.5-20.5-40.5C413.122,125.665,412.271,126.705,411.452,128.604c3,2.25,9.85,12.56,9.35,27.31
			s-12.75,23.47-18.75,20.22c3.43-20.83,9.17-46.5,9.39-47.5"/>
		<path fill="none" stroke="#00FF00" stroke-width="2" stroke-miterlimit="10" d="M477.051,170.165c-2,36-0.74,42.73-0.5,77.25
			c0.24,35-2.5,69.25-7.5,69.75s8.5-11.5,3.5-59.5c-4.34-41.7-1.26-67.56,4.76-91C477.202,167.825,477.112,168.984,477.051,170.165z
			"/>
		<path fill="none" stroke="#00FF00" stroke-width="2" stroke-miterlimit="10" d="M693.061,259.995c-5.34,0-12.01-1.66-12.01-1.66
			s0.5-35.17,1-38.67s5.5-14.17,9.5-14.33c4-0.17,10.17-1.5,11.5,0s2.17,6.66,2,10.16s-0.29,41.34,0.021,42
			C705.381,258.165,698.402,259.995,693.061,259.995z"/>
	</g>
</g>
</svg>
