<?xml version="1.0" encoding="utf-8"?>
<!-- Generator: Adobe Illustrator 15.0.0, SVG Export Plug-In . SVG Version: 6.00 Build 0)  -->
<!DOCTYPE svg PUBLIC "-//W3C//DTD SVG 1.1//EN" "http://www.w3.org/Graphics/SVG/1.1/DTD/svg11.dtd">
<svg version="1.1" id="Calque_1" xmlns="http://www.w3.org/2000/svg" xmlns:xlink="http://www.w3.org/1999/xlink" x="0px" y="0px"
	 width="641.5px" height="641.5px" viewBox="-241.5 0 641.5 641.5" enable-background="new -241.5 0 641.5 641.5"
	 xml:space="preserve">
<g>
	<path fill="#254053" d="M119.352,629.085c-5.995,0-11.565-1.938-16.101-5.604c-8.264-6.677-13.309-16.975-12.849-26.234
		c0.367-7.387,4.071-13.654,10.716-18.156c0.148-2.271-3.073-10.438-5.451-16.467c-4.354-11.046-7.406-19.259-7.319-24.282
		c-2.222,0.066-4.354,0.101-6.46,0.101c-4.182,0-8.51-0.13-12.896-0.384c-0.16,3.323-0.509,7.467-0.849,11.499
		c-0.496,5.871-1.228,14.57-0.832,16.906c5.504,3.271,8.711,8.41,9.055,14.544c0.432,7.698-3.644,15.977-10.141,20.6
		c-4.125,2.937-9.214,4.551-14.333,4.551c-8.005,0-15.023-3.84-18.773-10.271c-4.26-7.305-5.096-16.4-2.128-23.174
		c2.351-5.366,6.824-8.99,12.957-10.507c0.62-1.886,0.54-8.357,0.48-13.167c-0.058-4.79-0.119-9.717,0.214-13.727
		c-8.044-1.363-16.081-3.191-23.946-5.443c-1.069,4.467-2.635,10.071-4.158,15.521c-2.416,8.637-5.688,20.345-5.502,23.146
		c6.564,5.677,9.573,13.288,8.479,21.488c-1.346,10.076-8.963,20.177-18.528,24.561c-4.256,1.954-9.02,2.984-13.773,2.984
		c-13.189,0-24.313-7.365-28.337-18.763c-0.965-2.735-1.621-5.64-1.949-8.632l-0.086-0.786l0.451-0.65
		c3.063-4.414,6.277-14.137,9.114-22.715l1.456-4.38l0.616-0.402c3.798-2.476,8.298-3.837,13.384-4.048
		c0.511-0.695,1.471-3.01,2.922-10.44l0.251-1.289l1.268-0.347c13.049-3.544,18.156-19.188,15.557-32.266
		c-2.253-11.331-13.19-19.555-26.006-19.555c-2.755,0-5.474,0.389-8.08,1.159c-12.007,3.544-22.679,16.867-18.987,29.391l0.248,0.84
		l-0.418,0.767c-3.252,5.974-4.105,8.191-4.31,9.003c4.158,5.96,5.051,12.769,2.508,19.238
		c-3.134,7.975-11.405,14.699-20.113,16.356c-1.682,0.321-3.41,0.485-5.136,0.485c-13.455,0-24.938-9.633-26.143-21.926
		c-0.837-8.556,1.863-17.42,7.05-23.14c4.022-4.436,9.289-6.782,15.226-6.782c1.558,0,3.175,0.163,4.816,0.485
		c1.54-1.485,4.642-8.468,6.938-13.641c3.979-8.958,7.019-15.516,9.982-18.974c-9.101-7.645-17.589-16.006-25.281-24.901
		l-0.939,0.963c-6.262,6.406-14.749,15.087-15.93,17.634c3.724,9.973,0.788,17.546-2.365,22.171
		c-5.486,8.047-16.15,13.452-26.535,13.452c-0.687,0-1.372-0.023-2.049-0.071c-9.09-0.653-17.865-5.281-23.476-12.384
		c-5.029-6.367-7.112-14.071-5.865-21.696c2.252-13.77,12.914-28.405,28.238-28.405c3.955,0,7.977,1.003,11.963,2.986
		c1.995-0.817,8.09-8.391,12.571-13.961l1.19-1.478l0.53-0.205c5.231-2.013,9.969-7.24,12.071-13.319
		c1.454-4.21,1.011-8.814-1.247-12.97c-2.589-4.767-7.305-8.395-12.613-9.707c-1.34-0.33-2.776-0.5-4.271-0.5
		c-1.666,0-3.358,0.207-5.033,0.614l-1.743,0.424l-0.702-1.649c-0.223-0.525-0.802-1.839-0.86-1.973
		c-1.899,1.126-3.891,2.29-5.886,3.454c-6.806,3.977-16.017,9.358-17.783,11.312c0.546,6.417-1.258,12.131-5.238,16.556
		c-4.75,5.282-12.458,8.437-20.616,8.437c-3.316,0-6.603-0.541-9.506-1.564c-7.726-2.728-14.237-8.834-17.413-16.329
		c-2.853-6.732-2.824-13.926,0.079-20.255c5.036-10.982,15.627-18.653,25.758-18.653c5.455,0,10.53,2.047,15.092,6.084
		c0.617-0.152,2.255-0.817,6.313-3.546l1.337-0.897l1.222,1.052c3.626,3.124,8.034,4.707,13.102,4.707
		c7.811-0.003,16.428-3.922,22.488-10.235c4.519-4.706,6.757-11.1,6.303-17.997c-0.517-7.864-4.528-15.523-10.731-20.481
		c-4.795-3.832-11.547-6.121-18.06-6.121c-9.337,0-16.536,4.463-19.748,12.25l-0.544,1.32l-1.429-0.016
		c-2.07-0.019-4.107-0.032-6.057-0.032c-9.877,0-13.056,0.434-14.053,0.757c-2.226,4.596-5.356,8.137-9.312,10.541l-0.32,0.193
		l-0.366,0.071c-4.66,0.924-9.931,2.003-13.69,2.995l-0.349,0.092l-0.36-0.029c-8.609-0.692-17.301-5.155-22.685-11.651
		c-5.813-7.016-8.535-16.557-7.283-25.521c1.123-8.036,5.25-14.869,11.622-19.24c6.23-4.274,13.968-6.726,21.231-6.726
		c12.238,0,21.293,6.604,24.908,18.14c0.416,0.146,1.555,0.408,4.37,0.408c3.756,0,8.926-0.443,14.399-0.915
		c5.591-0.479,11.353-0.975,16.368-1.073c-0.01-0.626-0.014-1.252-0.014-1.882c0-10.386,0.75-20.926,2.231-31.363
		c-1.271-0.15-2.292-0.225-3.047-0.225c-0.315,0-0.538,0.012-0.689,0.028c-6.174,8.283-13.862,10.039-19.269,10.039
		c-10.701,0-21.958-6.888-27.375-16.748c-4.388-7.985-5.264-17.866-2.346-26.435c2.617-7.68,7.958-13.613,15.038-16.707
		c4.824-2.106,10.181-3.22,15.492-3.22c12.143,0,25.725,6.082,27.673,23.115c0.155,0.09,0.419,0.219,0.858,0.374
		c3.351-11.696,7.665-23.116,12.845-34.005c-2.573-1.573-5.315-3.288-8.061-5.004c-7.607-4.76-17.92-11.21-20.665-11.823
		c-4.288,2.761-8.792,4.163-13.394,4.163c-14.396,0-26.071-13.862-27.944-26.807c-1.304-9.017,1.344-18.578,7.085-25.576
		c5.146-6.272,12.229-9.953,19.945-10.363c0.653-0.034,1.308-0.052,1.968-0.052c11.106,0,21.619,4.69,27.436,12.243
		c4.662,6.05,6.049,13.516,4.023,21.613c1.396,1.911,9.973,6.186,16.297,9.337c3.006,1.499,6.1,3.04,9.034,4.584
		c6.701-10.041,14.269-19.592,22.541-28.442c-3.841-2.925-8.85-7.166-13.716-11.288c-6.841-5.793-16.115-13.646-18.741-14.643
		c-3.537,1.615-7.109,2.432-10.628,2.432c-15.936,0-27.041-16.212-27.041-30.762c0-17.243,13.487-31.81,29.451-31.81
		c0.81,0,1.633,0.039,2.447,0.112c11.883,1.081,22.711,7.642,27.584,16.717l0.944,1.758c0,0-3.966,2.436-5.319,3.278
		c-0.277,0.172-0.349,0.319-0.382,0.53c-0.129,0.801,0.217,3.433,6.188,10.584l0.71,0.852l-0.298,1.068
		c-0.319,1.15-0.717,2.311-1.186,3.457c1.106,2.091,8.986,7.553,14.793,11.579c1.9,1.316,3.84,2.661,5.738,4.006l0.164,0.117
		l0.139,0.145c9.673,10.086,12.05,14.016,10.172,16.815c-5.094,7.597-6.293,15.697-3.471,23.427
		c3.638,9.961,13.678,18.607,25.573,22.024c2.512,0.722,5.095,1.086,7.676,1.086c15.052,0,28.711-12.05,31.769-28.03
		c1.872-9.78-1.023-21.06-7.369-28.735c-3.443-4.163-9.478-9.125-18.685-9.125c-2.351,0-4.808,0.331-7.302,0.986
		c-0.225,0.059-0.462,0.089-0.702,0.089c-1.349,0-2.956-0.815-6.798-4.876l-0.17-0.18l-0.125-0.215
		c-1.34-2.323-2.738-4.785-4.134-7.249c-4.425-7.805-10.424-18.387-12.542-20.224c-0.683,0.058-1.454,0.088-2.207,0.088
		c-1.127,0-2.249-0.068-3.335-0.205l-0.83-0.104l-0.533-0.646c-6.612-7.972-9.361-10.593-10.504-11.397
		c-0.907,0.683-1.62,1.214-2.201,1.64l-1.828,1.337l-1.207-1.917c-5.128-8.142-6.278-19.284-2.931-28.385
		c4.609-12.536,16.683-21.292,29.362-21.292c3.614,0,7.125,0.711,10.439,2.112l0.734,0.31l0.348,0.718
		c2.39,4.959,6.325,11.108,10.128,17.053c4.061,6.346,7.896,12.34,9.262,16.073l0.237,0.65l-0.193,0.664
		c-1.095,3.778-3.145,7.329-6.095,10.564c0.019,0.102,0.052,0.239,0.105,0.417l0.204,0.683l-0.25,0.668
		c-4.532,12.06,4.411,25.421,15.674,31.369c3.282,1.733,6.837,2.612,10.567,2.612c10.547,0,20.91-7.186,25.202-17.473
		c3.422-8.203,2.48-18.935-2.293-26.099c-2.648-3.975-7.69-8.714-16.664-8.714c-0.432,0-0.872,0.011-1.317,0.033
		c-0.001,0-0.005,0-0.006,0c-1.456,0-2.438-0.965-3.225-1.911l-0.141-0.167l-0.102-0.192c-0.815-1.534-1.193-1.872-1.208-1.886
		l-0.338-0.241l-0.194-0.329c-2.669-4.226-6.339-11.401-9.891-18.338c-3.679-7.188-7.48-14.618-9.994-18.42l-0.604-0.915
		l0.398-1.021c0.509-1.302,1.077-2.519,1.688-3.616C-13.384,12.931-2.39,6.317,8.928,6.317c5.517,0,10.801,1.615,15.279,4.669
		c9.393,6.407,15.662,16.949,15.972,26.855c0.248,7.915-3.173,14.924-9.898,20.295c-0.049,2.364,4.171,10.959,7.282,17.296
		c4.124,8.397,8.388,17.082,9.612,22.973l0.146,0.696l-0.305,0.642c-4.594,9.667,2.264,20.729,11.549,25.84
		c2.645,1.456,5.53,2.193,8.572,2.193c8.18,0,16.312-5.524,19.774-13.435c2.935-6.708,2.157-15.414-1.886-21.169l-0.454-0.645
		l0.081-0.784c0.338-3.317,0.756-6.934,1.17-10.557c1.024-8.898,2.414-20.96,1.788-23.694c-7.375-4.576-11.545-11.617-11.753-19.889
		c-0.257-10.162,5.679-21.333,14.433-27.17c5.426-3.618,11.787-5.53,18.389-5.53c11.153,0,20.753,5.416,25.679,14.49
		c5.426,9.992,6.182,22.233,1.927,31.186c-3.398,7.152-9.646,11.822-18.081,13.524c-0.678,1.272-1.117,5.644-1.31,13.012
		l-0.022,0.731l-0.466,0.564c-5.515,6.654-7.375,17.698-4.628,27.484c1.045,3.72,3.003,7.036,5.816,9.854l1.719,1.725l-1.949,1.46
		c-7.331,5.497-11.39,16.53-10.096,27.454c1.463,12.323,12.926,21.617,26.662,21.615c1.984,0,3.963-0.205,5.882-0.612
		c8.952-1.895,17.331-8.979,20.379-17.228c1.702-4.604,2.515-11.675-3.266-19.212c-1.67-2.179-0.112-5.999,10.412-25.539
		c3.996-7.42,9.354-17.371,10.182-20.569c-2.946-1.714-3.53-2.133-4.376-2.778c-0.401-0.303-0.885-0.672-1.958-1.393
		c-0.95-0.638-1.71-1.2-2.962-2.127c-1.017-0.752-2.37-1.755-4.448-3.255l-0.481-0.345l-0.231-0.545
		c-1.061-2.513-1.661-5.14-1.782-7.808l-0.019-0.396l0.127-0.375c1.05-3.107,2.226-6.45,3.399-9.785
		c0.816-2.32,1.63-4.637,2.401-6.868l0.115-0.332l0.214-0.275c4.053-5.215,9.732-9.315,15.58-11.249
		c3.313-1.095,6.786-1.651,10.319-1.651c14.528,0,26.778,9.039,29.794,21.981c2.465,10.583,0.212,22.265-5.74,29.764
		c-4.743,5.977-11.48,9.137-19.483,9.137c-0.725,0-1.468-0.027-2.218-0.078c-1.635,1.71-4.345,10.9-6.342,17.675
		c-0.742,2.513-1.499,5.087-2.276,7.595c8.942,4.843,17.591,10.321,25.75,16.313c2.324-2.865,4.992-6.046,7.588-9.138
		c5.767-6.868,13.582-16.181,14.567-18.812c-3.633-7.879-3.231-16.054,1.152-23.07c5.384-8.622,16.493-14.675,27.016-14.72
		c9.227,0,18.29,3.969,24.388,10.617c5.468,5.961,8.113,13.469,7.449,21.143c-0.457,5.299-2.076,10.603-4.681,15.333l-0.121,0.223
		l-0.172,0.186c-4.308,4.698-8.763,9.555-11.945,12.05l-0.166,0.13l-0.188,0.096c-1.308,0.658-2.693,1.198-4.116,1.607l-0.879,0.251
		l-0.782-0.465c-3.767-2.232-7.589-3.365-11.357-3.365c-12.358,0-21.791,12.006-24.392,23.301c-1.41,6.13-0.184,12.561,3.453,18.107
		c4.226,6.445,11.064,10.962,18.765,12.396l0.814,0.153c0,0,2.349,3.138,2.769,3.706c1.49-1.094,3.032-2.217,4.589-3.348
		l0.416-0.299l0.504-0.079c8.038-1.242,15.313-5.702,18.988-11.643c3.025-4.894,3.601-10.689,1.658-16.76l-0.136-0.421l0.028-0.331
		l-0.037-0.376l0.225-0.512c0.307-0.698,0.669-1.403,1.139-2.217l0.068-0.12l0.086-0.111c1.373-1.792,3.922-4.403,8.014-8.22
		l0.14-0.131l0.164-0.104c5.239-3.357,11.689-5.208,18.164-5.208c2.527,0,4.982,0.289,7.295,0.855
		c8.848,2.168,16.717,8.204,21.056,16.15c3.889,7.123,4.648,15.069,2.137,22.377c-3.797,11.054-12.563,19.958-22.327,22.682
		l-0.999,0.278l-0.832-0.621c-5.846-4.357-12.432-6.567-19.576-6.567c-14.599,0-30.704,9.722-40.075,24.193
		c-5.897,9.1-7.546,20.222-4.646,31.313c3.292,12.59,12.185,23.752,23.788,29.854c6.329,3.33,14.108,5.163,21.909,5.163
		c13.583,0,25.646-5.453,32.269-14.586l0.338-0.466l0.526-0.231c0.698-0.305,1.097-0.525,1.312-0.661
		c2.727-15.082,15.087-20.475,25.842-20.475c6.79,0,13.68,2.081,18.908,5.711c7.483,5.194,12.669,13.65,13.872,22.622
		c1.081,8.041-1.059,15.733-6.02,21.657c-6.877,8.206-17.048,13.304-26.547,13.304c-0.002,0-0.002,0-0.004,0
		c-6.066,0-14.594-2.076-20.96-11.896c-0.055-0.003-0.12-0.007-0.201-0.007c-2.945,0-10.469,2.813-17.749,5.535
		c-7.888,2.948-16.016,5.986-21.923,7.031c0.056,2.091,0.084,3.928,0.084,5.672c0,8.624-0.501,17.296-1.492,25.816
		c2.333-0.145,4.755-0.28,7.184-0.417c8.956-0.504,21.096-1.185,23.688-2.268c3.981-9.851,12.341-15.483,23.011-15.483
		c8.771,0,17.896,3.881,23.815,10.125c6.271,6.609,9.624,15.946,8.974,24.976c-0.583,8.093-4.245,15.188-10.313,19.975
		c-6.602,5.21-14.935,8.197-22.859,8.197c-11.15,0-19.852-6.004-23.935-16.499c-0.298-0.08-0.948-0.198-2.236-0.198
		c-0.368,0-0.764,0.009-1.18,0.029l-0.877,0.035l-0.645-0.594c-4.16-3.832-10.227-5.939-17.08-5.939
		c-4.731,0-9.499,0.991-13.792,2.865c-5.979,2.614-10.499,7.656-12.729,14.198c-2.541,7.464-1.774,16.073,2.048,23.034
		c4.635,8.432,14.589,14.553,23.67,14.553c4.843,0,9.129-1.639,12.738-4.875l0.89-0.798l1.144,0.352
		c2.961,0.908,4.298,1.12,4.88,1.154c2.098-2.026,4.397-3.652,6.851-4.843l0.604-0.293l0.661,0.109
		c4.583,0.752,10.338,1.92,15.902,3.048c3.667,0.743,7.327,1.486,10.663,2.112l0.575,0.108l0.436,0.388
		c4.232,3.754,7.529,8.529,9.278,13.448c3.057,8.582,2.343,18.478-1.908,26.465c-3.812,7.166-10.032,12.171-17.518,14.092
		c-3.092,0.793-6.324,1.195-9.607,1.195c-9.441,0-17.959-3.297-23.373-9.045c-4.569-4.852-6.793-11.315-6.447-18.718
		c-1.745-1.599-11.003-4.104-17.829-5.953c-3.981-1.079-8.098-2.191-11.903-3.362l-1.131-0.349l-0.295-1.146
		c-4.25-16.543-23.441-25.749-39.342-26.014l-0.536-0.007c-9.224,0-17.967,3.949-24.626,11.118
		c-7.546,8.129-11.557,19.623-10.731,30.754c1.241,16.702,15.239,35.312,33.345,35.312c2.163-0.001,4.357-0.271,6.524-0.809
		l1.189-0.292l0.846,0.887c1.521,1.592,3.087,3.25,4.652,4.907c6.167,6.529,14.528,15.378,17.03,16.659
		c2.793-0.914,5.57-1.379,8.263-1.379c6.798,0,12.97,2.885,17.852,8.34c6.037,6.75,9.174,16.475,8.181,25.375
		c-1.782,15.988-14.894,28.514-29.846,28.514c-1.79,0-3.597-0.184-5.368-0.546c-11.142-2.281-21-9.58-25.114-18.6
		c-3.286-7.2-2.84-14.989,1.287-22.541c-0.871-2.202-8.1-8.504-13.429-13.15l-1.07-0.937l-0.032-0.917
		c-0.331-9.751-8.339-19.677-19.476-24.14c-2.68-1.073-5.496-1.619-8.37-1.619c-11.373,0-22.16,8.47-25.648,20.138
		c-2.078,6.945-1.147,15.331,2.429,21.875c1.97,3.611,5.658,8.296,12.019,10.128l0.916,0.263l0.409,0.861
		c0.433,0.907,0.728,1.373,0.891,1.599c10.019,1.506,17.717,7.144,21.712,15.914c4.903,10.767,3.633,25.437-3.089,35.676
		c-6.995,10.658-19.062,17.281-31.489,17.281c-7.337,0-14.174-2.348-19.765-6.793c-10.375-8.242-16.767-21.015-16.291-32.543
		c0.382-9.232,4.989-17.095,13.325-22.761c0.436-2.326-3.247-11.744-5.95-18.46c-5.453,1.893-20.76,7.078-24.72,7.078
		c-0.456,0-1.133-0.045-1.752-0.453c-1.722-1.137-1.184-3.071-0.112-6.931c1.415-5.095,3.78-13.621,0.145-16.876
		c-2.055-1.836-4.666-2.81-7.547-2.81c-4.295,0-8.594,2.189-11.213,5.714c-2.689,3.615-3.48,8.957-1.922,12.985
		c0.843,2.184,2.79,4.971,7.266,5.848c2.137,0.42,2.802,2.578,5.582,14.516c0.829,3.557,2.017,8.658,2.79,10.784l1.401-0.271
		l0.538,1.852c1.014,3.495,4.009,13.814,5.453,15.965c7.992,1.319,14.103,5.906,17.25,12.967c3.871,8.685,2.754,20.468-2.71,28.649
		C138.905,623.844,129.254,629.085,119.352,629.085z"/>
	<path fill="#254053" d="M108.676,7.021c9.648,0,19.001,4.503,23.822,13.385c8.098,14.915,6.137,37.702-15.115,41.708
		c-1.924,0.363-2.394,6.816-2.606,14.952c-6.354,7.663-7.812,19.524-5.037,29.404c1.196,4.252,3.443,7.859,6.354,10.775
		c-8.448,6.332-12.207,18.594-10.927,29.395c1.673,14.102,14.849,23.481,28.761,23.481c2.103,0,4.223-0.215,6.322-0.659
		c15.989-3.386,31.538-22.6,18.353-39.794c-2.285-2.978,23.95-44.353,20.886-46.119c-5.796-3.351-3.847-2.424-7.129-4.627
		c-1.703-1.143-2.773-2.034-7.353-5.341c-0.989-2.34-1.512-4.717-1.621-7.081c1.779-5.264,3.922-11.207,5.797-16.638
		c3.79-4.876,9.041-8.708,14.575-10.54c3.157-1.044,6.423-1.545,9.655-1.545c12.655,0,24.783,7.668,27.735,20.348
		c3.7,15.884-3.48,36.306-23.166,36.306c-0.802,0-1.626-0.033-2.473-0.104c-0.025-0.001-0.05-0.003-0.078-0.003
		c-3.088,0-6.725,15.503-10.824,28.448c10.041,5.335,19.622,11.417,28.662,18.186c9.068-11.382,25.044-28.954,23.913-31.294
		c-9.422-19.51,9.701-35.17,26.044-35.24c0.046,0,0.091,0,0.134,0c16.289,0,30.992,13.224,29.589,29.463
		c-0.429,4.977-1.972,10.038-4.428,14.497c-4.511,4.919-8.715,9.482-11.691,11.816c-1.196,0.601-2.449,1.091-3.75,1.463
		c-4.298-2.547-8.486-3.659-12.435-3.659c-13.095,0-23.528,12.245-26.452,24.942c-3.555,15.454,8.389,30.171,23.891,33.055
		c1.173,1.58,2.375,3.138,3.509,4.749c1.996-1.482,4.134-3.037,6.292-4.606c14.101-2.178,27.836-13.945,22.335-31.134
		c-0.012-0.04,0.007-0.101,0.002-0.145c0.307-0.697,0.659-1.361,1.034-2.011c1.456-1.897,4.304-4.722,7.779-7.961
		c4.982-3.193,11.116-4.874,17.022-4.874c2.327,0,4.621,0.261,6.793,0.793c15.874,3.89,27.009,20.33,21.698,35.789
		c-3.341,9.716-11.295,18.652-20.897,21.333c-6.544-4.878-13.689-6.987-20.839-6.987c-16.341,0-32.693,11.017-41.85,25.159
		c-14.273,22.031-3.297,51.968,19.931,64.188c6.745,3.548,14.812,5.407,22.894,5.407c13.145,0,26.334-4.912,33.981-15.459
		c1.479-0.645,2.376-1.225,2.457-1.707c2.203-13.541,12.896-19.25,23.85-19.25c6.346,0,12.779,1.915,17.703,5.333
		c13.426,9.319,17.931,28.657,7.436,41.186c-6.107,7.289-15.671,12.548-24.927,12.548c-7.266,0-14.349-3.244-19.416-11.289
		c-0.267-0.424-0.87-0.612-1.747-0.612c-6.901,0-30.811,11.711-41.84,12.855c0.082,2.49,0.14,4.985,0.14,7.495
		c0,9.518-0.606,18.892-1.784,28.088c14.479-0.969,34.206-1.495,35.056-3.701c4.004-10.425,12.447-14.625,21.234-14.625
		c8.266,0.003,16.833,3.717,22.282,9.466c11.247,11.86,11.717,31.71-1.115,41.836c-6.011,4.746-13.953,7.745-21.55,7.745
		c-9.237,0-17.969-4.433-22.118-15.551c-0.305-0.825-1.788-1.148-4.053-1.148c-0.4,0-0.825,0.012-1.271,0.03
		c-4.863-4.479-11.611-6.5-18.512-6.5c-5.02,0-10.122,1.073-14.637,3.043c-14.977,6.543-19.555,25.863-11.688,40.185
		c4.814,8.762,15.25,15.648,25.521,15.648c4.974,0,9.91-1.614,14.149-5.412c2.54,0.777,4.532,1.252,5.67,1.252
		c0.456,0,0.774-0.076,0.938-0.24c2.129-2.135,4.373-3.705,6.668-4.819c7.512,1.235,18.043,3.559,26.52,5.154
		c3.931,3.486,7.029,7.912,8.689,12.575c5.479,15.399-2.129,33.738-17.96,37.8c-2.918,0.747-5.997,1.129-9.083,1.129
		c-14.308,0-28.752-8.195-27.687-25.952c0.201-3.319-17.686-6.861-31.243-11.033c-4.398-17.116-23.623-27.306-41.353-27.601
		c-0.191-0.003-0.383-0.005-0.572-0.005c-22.463,0-39.135,21.644-37.464,44.141c1.333,17.912,16.32,37.269,35.451,37.269
		c2.29,0,4.64-0.28,7.031-0.868c9.467,9.919,20.686,22.306,23.208,22.306c0.07,0,0.136-0.009,0.191-0.029
		c2.835-0.986,5.535-1.436,8.074-1.436c15.798,0.002,25.491,17.373,23.93,31.366c-1.624,14.555-13.725,26.636-27.744,26.636
		c-1.627,0-3.283-0.163-4.945-0.502c-16.628-3.403-32.812-19.567-22.197-38.41c1.194-2.124-6.3-8.609-14.471-15.735
		c-0.386-11.412-9.947-21.683-20.801-26.03c-3.019-1.209-6.107-1.77-9.157-1.77c-12.283,0-23.923,9.104-27.674,21.645
		c-3.851,12.877,1.848,30.6,15.891,34.642c0.784,1.653,1.473,2.639,2.029,2.717c25.239,3.434,28.169,32.345,17.625,48.405
		c-6.712,10.225-18.303,16.327-29.724,16.327c-6.521,0-12.984-1.987-18.452-6.332c-15.62-12.412-23.981-37.962-2.831-52.075
		c2.283-1.522-1.661-11.48-6.193-22.696c-7.936,2.816-22.595,7.628-25.925,7.628c-0.28,0-0.48-0.034-0.589-0.105
		c-1.41-0.931,6.958-17.636,0.278-23.614c-2.563-2.294-5.738-3.35-8.958-3.35c-4.857,0-9.81,2.401-12.906,6.566
		c-5.149,6.925-4.596,19.967,6.631,22.17c1.933,0.377,5.952,25.567,7.799,25.567c0.013,0,0.028,0,0.039-0.005
		c0.333-0.068,0.591-0.116,0.848-0.165c2.656,9.152,5.166,17.171,6.622,17.383c19.958,2.883,22.09,25.784,13.641,38.436
		c-5.339,7.992-14.456,12.734-23.432,12.734c-5.23,0-10.414-1.613-14.771-5.134c-12.287-9.925-18.743-30.208-1.906-41.242
		c3.987-2.61-15.458-37.501-11.754-44.457c-2.995,0.121-6.004,0.19-9.03,0.19c-5.021,0-9.995-0.183-14.93-0.516
		c-0.199,9.699-3.101,31.139-1.248,32.169c13.796,7.657,8.987,25.001-0.708,31.902c-3.897,2.771-8.547,4.159-13.106,4.159
		c-6.783,0-13.363-3.072-16.948-9.223c-6.227-10.675-5.308-27.303,10.072-30.693c2.911-0.639,0.604-20.548,1.937-30.576
		c-9.49-1.518-18.776-3.646-27.818-6.337c-2.884,13.222-12.07,40.761-9.86,42.603c16.637,13.881,5.686,36.039-9.169,42.852
		c-4.11,1.886-8.529,2.793-12.893,2.793c-11.407,0-22.408-6.205-26.345-17.354c-0.916-2.596-1.534-5.354-1.841-8.158
		c3.691-5.319,7.331-17.146,10.603-26.932c3.382-2.205,7.596-3.575,12.726-3.721c1.771-0.05,3.15-5.221,4.5-12.133
		c14.309-3.885,19.83-20.867,17.075-34.718c-2.608-13.116-15.057-21.259-28.08-21.259c-2.897,0-5.824,0.404-8.678,1.244
		c-12.826,3.788-24.517,18.108-20.417,32.017c-3.005,5.52-5.137,9.92-4.516,10.763c10.666,14.52-2.586,30.23-15.937,32.771
		c-1.578,0.298-3.164,0.444-4.741,0.444c-11.763,0-22.87-8.087-24.038-20.015c-1.241-12.674,5.862-27.604,20.172-27.604
		c1.551,0.002,3.187,0.176,4.907,0.549c0.054,0.013,0.108,0.02,0.166,0.02c4.059,0,13.229-30.395,19.849-34.914
		c-10.27-8.443-19.774-17.782-28.361-27.928c-9.35,9.591-19.879,20.099-19.132,22.001c7.612,19.395-10.819,33.237-26.741,33.237
		c-0.637,0-1.271-0.023-1.898-0.067c-16.302-1.169-30.042-15.499-27.405-31.632c2.174-13.299,12.396-26.634,26.152-26.633
		c3.571,0,7.378,0.897,11.347,2.929c0.141,0.071,0.298,0.105,0.47,0.105c2.568,0,8.641-7.688,15.196-15.83
		c6.118-2.353,11.111-8.24,13.309-14.603c3.787-10.96-4.093-22.636-15.351-25.418c-1.529-0.378-3.141-0.562-4.777-0.562
		c-1.837,0-3.711,0.231-5.533,0.675c-0.597-1.406-1.237-2.787-1.807-4.205c-11.143,6.696-27.054,15.343-26.826,17.471
		c1.641,15.412-11.38,23.231-23.696,23.231c-3.055,0-6.068-0.482-8.802-1.446c-13.759-4.855-22.199-20.444-16.118-33.709
		c4.313-9.402,13.749-17.419,23.836-17.419c4.694,0.001,9.529,1.738,14.051,5.875c0.187,0.168,0.445,0.249,0.773,0.249
		c1.471,0,4.287-1.612,7.76-3.945c4.24,3.651,9.295,5.218,14.481,5.218c8.731,0,17.831-4.445,24.014-10.884
		c11.32-11.791,8.132-31.39-4.632-41.595c-5.196-4.152-12.369-6.584-19.38-6.584c-9.016,0-17.765,4.019-21.701,13.56
		c-2.077-0.021-4.122-0.033-6.078-0.033c-8.405,0-15.17,0.262-15.74,1.495c-2.174,4.691-5.215,7.979-8.721,10.109
		c-5.255,1.041-10.198,2.068-13.818,3.022c-8.124-0.653-16.249-4.889-21.227-10.895c-10.426-12.586-9.571-32.422,3.908-41.67
		c5.768-3.957,13.041-6.354,20.035-6.354c9.974,0,19.377,4.878,23.015,17.059c0.33,1.103,2.708,1.488,6.265,1.488
		c8.128,0,22.415-2.006,32.468-2.006c0.151,0,0.301,0,0.449,0.001c-0.023-1.325-0.05-2.648-0.05-3.979
		c0-11.279,0.878-22.354,2.519-33.174c-2.244-0.332-4.12-0.529-5.448-0.529c-1.121,0-1.85,0.14-2.08,0.462
		c-4.908,6.831-11.361,9.607-17.88,9.607c-10.272,0-20.709-6.892-25.524-15.653c-7.868-14.324-3.292-33.643,11.688-40.187
		c4.517-1.973,9.621-3.043,14.645-3.043c12.276,0,24.076,6.398,25.619,21.666c0.099,0.97,1.756,1.707,4.375,2.316
		c3.588-12.994,8.321-25.513,14.12-37.424c-11.844-7.154-28.282-18.177-31.733-18.177c-0.196,0-0.348,0.035-0.457,0.109
		c-4.286,2.864-8.579,4.099-12.667,4.099c-13.094,0-24.07-12.668-25.851-24.996c-2.341-16.176,8.727-32.66,25.05-33.526
		c0.616-0.033,1.234-0.049,1.857-0.049c16.49,0.001,34.622,11.469,29.305,31.622c-0.842,3.189,15.745,10.101,28.187,16.812
		c7.373-11.261,15.753-21.798,25.012-31.494c-9.945-7.082-32.021-27.838-35.772-27.838c-0.111,0-0.205,0.018-0.285,0.056
		c-3.557,1.698-6.979,2.453-10.202,2.453c-14.498,0-24.927-15.277-24.927-28.649c0-15.582,12.103-29.697,27.337-29.695
		c0.743,0,1.499,0.033,2.256,0.103c10.385,0.944,21.126,6.699,25.912,15.611c-1.077,0.661-2.271,1.396-3.628,2.24
		c-3.381,2.097-0.254,7.616,5.298,14.266c-0.327,1.175-0.743,2.374-1.261,3.594c-1.142,2.688,10.795,10.21,21.422,17.738
		c6.467,6.744,11.216,12.277,9.944,14.174c-14.645,21.841,3.439,42.964,23.274,48.662c2.766,0.795,5.534,1.168,8.26,1.168
		c16.094,0,30.649-13.056,33.844-29.747c3.331-17.417-7.625-40.373-28.13-40.373c-2.474,0-5.092,0.334-7.838,1.056
		c-0.051,0.013-0.106,0.021-0.166,0.021c-0.924,0-2.801-1.613-5.264-4.213c-7.124-12.345-15.778-28.566-18.124-28.566
		c-0.016,0-0.03,0-0.044,0.002c-0.872,0.081-1.72,0.121-2.546,0.121c-1.061,0-2.083-0.065-3.071-0.188
		c-5.833-7.034-10.674-12.409-12.319-12.409c-0.129,0-0.237,0.034-0.327,0.101c-1.266,0.962-2.204,1.661-2.933,2.194
		c-4.849-7.701-5.77-18.277-2.736-26.528c4.324-11.764,15.666-19.908,27.38-19.908c3.222,0,6.475,0.618,9.615,1.944
		c5.049,10.47,16.815,26.112,19.311,32.934c-0.992,3.421-2.892,6.823-5.935,10.063c-0.375,0.398-0.34,1.145-0.05,2.114
		c-4.975,13.243,4.533,27.574,16.666,33.983c3.708,1.957,7.643,2.855,11.556,2.855c11.343,0,22.473-7.558,27.152-18.772
		c6.154-14.749-0.387-37.741-20.908-37.741c-0.466,0-0.943,0.012-1.423,0.035c-0.008,0-0.014,0-0.023,0
		c-0.363,0-0.866-0.417-1.48-1.152c-0.708-1.331-1.325-2.239-1.82-2.592c-5.376-8.514-14.885-29.192-19.908-36.796
		c0.455-1.163,0.971-2.291,1.565-3.358C-11.832,14.5-1.424,8.438,8.932,8.438c4.885,0,9.759,1.349,14.087,4.301
		c14.022,9.563,22.696,30.724,5.628,44.002c-3.499,2.722,13.912,29.831,16.461,42.101c-5.153,10.842,2.454,23.102,12.439,28.598
		c3.061,1.685,6.335,2.456,9.593,2.456c8.987,0,17.847-5.875,21.709-14.699c3.113-7.115,2.5-16.696-2.092-23.233
		c1.476-14.498,4.463-34.772,2.394-36.005C70.537,44.87,77.864,21.265,91.463,12.2C96.651,8.736,102.72,7.021,108.676,7.021
		 M108.676,2.793v4.229V2.793c-7.02,0-13.785,2.035-19.561,5.886c-9.473,6.314-15.65,17.961-15.372,28.981
		c0.22,8.678,4.421,16.102,11.876,21.069c0.23,3.749-1.035,14.728-1.896,22.221c-0.412,3.563-0.835,7.249-1.176,10.583l-0.159,1.568
		l0.907,1.29c3.583,5.103,4.289,13.138,1.68,19.108c-3.136,7.163-10.471,12.167-17.836,12.167c-2.684,0-5.226-0.65-7.555-1.932
		c-8.244-4.538-14.664-14.652-10.658-23.08l0.609-1.284l-0.289-1.392c-1.279-6.153-5.603-14.958-9.784-23.475
		c-2.63-5.356-6.122-12.468-6.896-15.511c8.323-7.141,9.908-15.409,9.727-21.213c-0.33-10.561-6.961-21.762-16.893-28.537
		C20.569,5.949,14.875,4.208,8.931,4.208c-12.072,0-23.793,7.04-29.858,17.936c-0.657,1.182-1.266,2.486-1.809,3.876l-0.796,2.042
		l1.207,1.827c2.449,3.705,6.224,11.082,9.875,18.218c3.572,6.98,7.267,14.197,9.985,18.504l0.442,0.7l0.442,0.315
		c0.116,0.161,0.371,0.54,0.777,1.303l0.205,0.387l0.281,0.336c0.61,0.731,2.228,2.674,4.728,2.674H4.51l0.123-0.005
		c0.422-0.022,0.828-0.032,1.225-0.032c8.039,0,12.542,4.226,14.904,7.771c4.403,6.609,5.268,16.525,2.102,24.114
		c-3.973,9.523-13.535,16.173-23.252,16.173c-3.384,0-6.607-0.796-9.58-2.366c-10.453-5.521-18.804-17.788-14.683-28.758
		l0.501-1.334l-0.193-0.643c2.754-3.238,4.694-6.767,5.78-10.509l0.385-1.33l-0.476-1.299c-1.446-3.952-5.163-9.76-9.467-16.486
		c-3.771-5.893-7.67-11.986-10.006-16.832l-0.693-1.437l-1.468-0.621c-3.576-1.511-7.364-2.277-11.263-2.278
		c-13.549,0-26.44,9.324-31.348,22.677c-3.564,9.693-2.338,21.564,3.126,30.24l2.414,3.834l3.658-2.675
		c0.263-0.191,0.551-0.405,0.873-0.644c1.401,1.317,4.041,4.113,8.958,10.044l1.068,1.289l1.661,0.208
		c1.172,0.147,2.382,0.222,3.596,0.222c0.439,0,0.885-0.01,1.333-0.03c2.395,2.896,7.854,12.523,11.579,19.094
		c1.4,2.469,2.798,4.935,4.143,7.263l0.248,0.432l0.343,0.362c3.917,4.139,6.019,5.537,8.333,5.537c0.421,0,0.839-0.055,1.24-0.16
		c2.319-0.606,4.595-0.915,6.763-0.915c8.385,0,13.903,4.545,17.054,8.359c5.872,7.1,8.652,17.947,6.923,26.991
		c-2.823,14.754-15.867,26.313-29.692,26.313c-2.387,0-4.772-0.337-7.095-1.004c-11.095-3.187-20.809-11.512-24.171-20.717
		c-2.62-7.169-1.529-14.413,3.242-21.526c3.167-4.724-1.817-10.501-10.404-19.455l-0.278-0.291l-0.33-0.233
		c-1.904-1.348-3.849-2.697-5.755-4.02c-4.91-3.402-11.433-7.926-13.589-10.209c0.307-0.839,0.582-1.683,0.814-2.522l0.593-2.139
		l-1.421-1.702c-4.147-4.964-5.286-7.402-5.598-8.407c1.061-0.657,2.016-1.247,2.893-1.785l3.404-2.087l-1.889-3.517
		c-5.201-9.682-16.683-16.678-29.254-17.82c-0.877-0.08-1.764-0.121-2.641-0.121c-8.484,0-16.483,3.692-22.523,10.403
		c-5.747,6.383-9.041,14.955-9.041,23.522c0,15.55,11.974,32.876,29.156,32.876c3.504,0,7.048-0.742,10.552-2.207
		c3.249,1.892,11.688,9.039,17.449,13.917c4.32,3.659,8.469,7.172,11.965,9.933c-7.308,7.984-14.053,16.514-20.121,25.437
		c-2.438-1.259-4.943-2.508-7.394-3.729c-5.344-2.664-12.443-6.203-14.907-8.154c1.756-8.277,0.15-15.921-4.681-22.194
		c-6.209-8.059-17.363-13.067-29.11-13.068c-0.697,0-1.396,0.02-2.081,0.056c-8.316,0.441-15.94,4.396-21.467,11.133
		c-6.111,7.449-8.932,17.624-7.543,27.219c1.991,13.763,14.041,28.617,30.037,28.617c4.697,0,9.283-1.326,13.655-3.949
		c3.488,1.409,12.875,7.279,19.282,11.288c2.15,1.344,4.346,2.718,6.464,4.023c-3.956,8.503-7.389,17.317-10.257,26.321
		c-3.858-11.572-14.395-18.729-28.401-18.731c-5.6,0-11.248,1.176-16.337,3.396c-7.631,3.334-13.384,9.713-16.193,17.963
		c-3.106,9.12-2.175,19.637,2.493,28.135c5.773,10.507,17.792,17.844,29.229,17.844c5.709,0,13.745-1.787,20.326-10.062
		c0.091,0.001,0.187,0.006,0.284,0.012c-1.287,9.755-1.943,19.587-1.951,29.287c-4.551,0.172-9.55,0.601-14.418,1.021
		c-5.427,0.467-10.554,0.907-14.221,0.907c-1.314,0-2.187-0.058-2.752-0.123c-4.147-11.737-13.726-18.424-26.526-18.424
		c-7.679,0-15.854,2.586-22.427,7.096c-6.867,4.711-11.313,12.061-12.519,20.691c-1.333,9.543,1.562,19.696,7.747,27.163
		c5.736,6.917,14.987,11.673,24.144,12.41l0.72,0.059l0.697-0.187c3.703-0.975,8.934-2.046,13.562-2.962l0.732-0.145l0.639-0.39
		c4.037-2.45,7.276-5.977,9.647-10.494c1.474-0.236,4.863-0.496,12.62-0.496c1.943,0,3.975,0.015,6.037,0.033l2.857,0.027
		l1.091-2.641c4.077-9.875,13.802-10.942,17.793-10.942c6.05,0,12.309,2.114,16.742,5.658c5.746,4.596,9.462,11.688,9.942,18.97
		c0.414,6.299-1.618,12.121-5.721,16.395c-5.676,5.913-13.709,9.587-20.965,9.587c-4.546,0-8.491-1.412-11.722-4.196l-2.443-2.103
		l-2.675,1.798c-2.458,1.653-3.905,2.47-4.733,2.871c-4.668-3.782-9.99-5.771-15.494-5.771c-10.927,0-22.311,8.178-27.679,19.885
		c-3.153,6.876-3.189,14.675-0.103,21.959c3.404,8.037,10.38,14.577,18.657,17.498c3.171,1.119,6.605,1.687,10.208,1.687
		c8.749,0,17.045-3.415,22.188-9.135c4.158-4.623,6.161-10.504,5.843-17.085c2.702-2.207,10.991-7.052,16.673-10.37
		c1.271-0.743,2.561-1.496,3.835-2.246l1.304,3.07l3.486-0.849c1.51-0.367,3.036-0.556,4.533-0.556c1.325,0,2.591,0.147,3.764,0.438
		c4.739,1.169,8.95,4.41,11.263,8.662c1.971,3.626,2.363,7.63,1.105,11.269c-1.906,5.517-6.159,10.242-10.831,12.04l-1.062,0.407
		l-0.714,0.887l-0.836,1.041c-3.746,4.654-8.721,10.839-11.154,12.83c-3.899-1.759-7.835-2.652-11.729-2.652
		c-16.492,0-27.934,15.549-30.324,30.181c-1.344,8.217,0.892,16.51,6.292,23.348c5.972,7.56,15.312,12.488,24.983,13.18
		c0.723,0.053,1.461,0.078,2.2,0.078c11.052,0,22.418-5.776,28.282-14.376c4.648-6.818,5.674-14.974,2.946-23.119
		c2.031-2.974,9.22-10.367,14.457-15.727c6.921,7.837,14.454,15.247,22.474,22.105c-2.752,3.916-5.544,9.974-9.019,17.798
		c-1.896,4.273-4.396,9.896-5.907,12.2c-1.328-0.197-2.639-0.301-3.916-0.301c-6.549,0-12.355,2.585-16.79,7.477
		c-5.574,6.145-8.482,15.634-7.588,24.766c1.33,13.586,13.473,23.832,28.246,23.832c1.858,0,3.718-0.175,5.531-0.52
		c9.529-1.815,18.246-8.911,21.686-17.661c2.683-6.83,1.915-13.983-2.141-20.322c0.431-1.104,1.451-3.31,3.832-7.683l0.838-1.538
		l-0.496-1.68c-3.351-11.364,6.507-23.504,17.559-26.767c2.412-0.711,4.928-1.073,7.48-1.073c10.128,0,21.603,6.136,23.934,17.856
		c2.411,12.125-2.18,26.593-14.036,29.814l-2.538,0.689l-0.503,2.58c-1.022,5.231-1.75,7.672-2.196,8.809
		c-4.959,0.387-9.388,1.833-13.189,4.313l-1.233,0.805l-0.467,1.396c-0.403,1.203-0.81,2.439-1.225,3.688
		c-2.79,8.441-5.953,18.009-8.841,22.171l-0.901,1.3l0.171,1.571c0.346,3.153,1.037,6.217,2.056,9.105
		c4.327,12.255,16.232,20.174,30.331,20.174c5.057,0,10.124-1.097,14.654-3.175c10.35-4.744,18.282-15.276,19.741-26.204
		c1.148-8.603-1.833-16.598-8.415-22.673c0.365-3.744,3.345-14.399,5.378-21.675c1.294-4.632,2.621-9.378,3.653-13.462
		c6.649,1.834,13.407,3.365,20.181,4.572c-0.194,3.692-0.143,7.896-0.093,11.997c0.046,3.683,0.11,8.936-0.197,11.452
		c-7.649,2.317-11.318,7.362-13.063,11.347c-3.229,7.371-2.351,17.219,2.239,25.088c4.132,7.085,11.833,11.318,20.599,11.318
		c5.553,0,11.077-1.756,15.557-4.942c7.066-5.027,11.495-14.046,11.025-22.441c-0.365-6.503-3.595-12.003-9.151-15.657
		c-0.129-3.023,0.494-10.397,0.924-15.496c0.272-3.234,0.551-6.537,0.734-9.452c3.703,0.181,7.354,0.273,10.904,0.273
		c1.459,0,2.937-0.015,4.445-0.046c0.579,5.402,3.425,12.898,7.366,22.891c1.99,5.053,4.629,11.744,5.185,14.681
		c-8.23,6.051-10.323,13.631-10.592,19.064c-0.493,9.91,4.857,20.893,13.631,27.981c4.917,3.972,10.944,6.072,17.429,6.072
		c10.599,0,20.923-5.6,26.947-14.613c5.451-8.159,6.874-19.215,3.816-28.291c2.905,5.081,6.849,9.753,11.581,13.514
		c5.969,4.743,13.258,7.25,21.081,7.25c13.132,0,25.875-6.987,33.259-18.232c7.21-10.986,8.517-26.143,3.244-37.715
		c-4.169-9.154-12.062-15.134-22.329-16.966c-0.083-0.158-0.177-0.35-0.288-0.575l-0.816-1.724l-1.832-0.525
		c-5.663-1.63-8.97-5.854-10.75-9.11c-3.315-6.069-4.18-13.831-2.26-20.258c3.227-10.793,13.165-18.628,23.625-18.628
		c2.604,0,5.155,0.495,7.586,1.466c8.762,3.511,17.81,12.282,18.147,22.251l0.063,1.835l1.382,1.207l0.383,0.333
		c4.504,3.927,10.483,9.141,12.378,11.651c-4.914,9.801-3.184,18.04-0.773,23.324c4.389,9.614,14.834,17.381,26.612,19.791
		c1.912,0.393,3.861,0.59,5.795,0.59c16.014,0,30.046-13.352,31.946-30.395c1.058-9.478-2.276-19.828-8.702-27.015
		c-5.22-5.832-12.12-9.049-19.428-9.049c-2.598,0-5.258,0.396-7.93,1.18c-3.023-2.244-10.636-10.299-15.829-15.798
		c-1.567-1.659-3.137-3.318-4.657-4.913l-1.692-1.774l-2.379,0.588c-2.002,0.495-4.026,0.743-6.019,0.743
		c-16.948,0-30.063-17.576-31.234-33.352c-0.784-10.554,3.02-21.452,10.171-29.158c6.255-6.735,14.447-10.443,23.077-10.443
		c0.168,0,0.336,0.002,0.504,0.005c15.116,0.25,33.337,8.898,37.324,24.426l0.59,2.294l2.263,0.695
		c3.838,1.182,7.975,2.3,11.973,3.382c5.77,1.562,13.436,3.638,16.233,5.067c-0.078,7.468,2.347,14.012,7.056,19.014
		c5.811,6.169,14.891,9.709,24.912,9.709c3.461,0,6.869-0.425,10.134-1.264c8.066-2.069,14.765-7.447,18.858-15.143
		c4.523-8.507,5.284-19.037,2.034-28.167c-1.87-5.25-5.373-10.334-9.868-14.323l-0.875-0.773l-1.148-0.216
		c-3.318-0.625-7.038-1.379-10.637-2.108c-5.583-1.133-11.357-2.304-15.979-3.063l-1.323-0.22l-1.208,0.585
		c-2.359,1.145-4.587,2.659-6.636,4.514c-0.664-0.131-1.771-0.396-3.554-0.944l-2.285-0.698l-1.775,1.593
		c-3.212,2.877-7.022,4.336-11.328,4.336c-8.357,0-17.531-5.661-21.817-13.457c-3.543-6.449-4.252-14.425-1.897-21.333
		c2.034-5.975,6.145-10.571,11.573-12.941c4.028-1.76,8.504-2.689,12.945-2.689c6.322,0,11.879,1.911,15.646,5.383l1.293,1.188
		l1.756-0.074c0.382-0.018,0.746-0.024,1.09-0.024c0.292,0,0.536,0.006,0.743,0.015c4.599,10.63,13.774,16.682,25.428,16.682
		c8.393,0,17.203-3.152,24.17-8.653c6.538-5.158,10.483-12.788,11.11-21.481c0.693-9.609-2.875-19.547-9.544-26.58
		c-6.307-6.652-16.021-10.785-25.35-10.785c-11.234-0.001-20.104,5.75-24.57,15.848c-3.659,0.861-14.707,1.482-22.251,1.905
		c-1.572,0.09-3.144,0.176-4.689,0.268c0.818-7.793,1.229-15.693,1.229-23.556c0-1.251-0.012-2.55-0.042-3.949
		c5.879-1.305,13.292-4.076,20.509-6.773c5.824-2.177,12.938-4.836,16.137-5.321c5.374,7.641,13.14,11.822,22.035,11.822
		c10.106,0,20.899-5.388,28.169-14.061c5.348-6.384,7.654-14.657,6.495-23.297c-1.279-9.549-6.801-18.549-14.763-24.077
		c-5.574-3.869-12.905-6.088-20.113-6.088c-11.37,0-24.405,5.606-27.72,21.188c-0.085,0.038-0.176,0.08-0.278,0.124l-1.056,0.462
		l-0.677,0.932c-6.224,8.587-17.646,13.713-30.556,13.713c-7.465,0-14.896-1.747-20.927-4.921
		c-11.085-5.832-19.581-16.491-22.726-28.519c-2.75-10.51-1.196-21.033,4.373-29.628c8.997-13.895,24.39-23.229,38.303-23.229
		c6.679,0,12.841,2.069,18.312,6.149l1.664,1.24l2-0.56c10.415-2.906,19.741-12.34,23.759-24.031
		c2.706-7.876,1.896-16.428-2.281-24.079c-4.617-8.456-12.994-14.881-22.409-17.189c-2.476-0.606-5.099-0.915-7.796-0.915
		c-6.874,0-13.729,1.968-19.306,5.541l-0.322,0.206l-0.279,0.261c-4.238,3.951-6.784,6.567-8.252,8.479l-0.168,0.222l-0.139,0.24
		c-0.509,0.883-0.903,1.652-1.241,2.422l-0.451,1.025l0.089,0.842c0.005,0.425,0.07,0.834,0.194,1.241
		c1.782,5.569,1.297,10.617-1.431,15.03c-3.357,5.428-10.068,9.516-17.513,10.665l-1.011,0.156l-0.829,0.601
		c-0.977,0.708-1.95,1.417-2.908,2.115c-0.006-0.008-0.013-0.016-0.019-0.025c-0.333-0.444-0.667-0.889-0.998-1.334l-0.991-1.33
		l-1.628-0.303c-7.031-1.308-13.528-5.599-17.383-11.477c-3.318-5.061-4.439-10.912-3.16-16.475
		c2.419-10.5,11.067-21.662,22.333-21.662c3.384,0,6.843,1.032,10.276,3.069l1.567,0.929l1.755-0.502
		c1.549-0.445,3.057-1.032,4.483-1.75l0.378-0.191l0.333-0.261c3.318-2.604,7.831-7.525,12.197-12.285l0.343-0.374l0.245-0.444
		c2.747-4.988,4.453-10.581,4.936-16.172c0.716-8.27-2.124-16.35-7.997-22.752c-6.587-7.182-15.993-11.302-25.802-11.304h-0.152
		c-11.385,0.049-22.961,6.365-28.8,15.715c-4.598,7.361-5.183,15.872-1.698,24.125c-1.876,3.257-8.991,11.732-13.846,17.518
		c-2.142,2.551-4.335,5.163-6.341,7.613c-7.294-5.254-14.953-10.1-22.852-14.457c0.604-1.991,1.197-4,1.777-5.969
		c1.69-5.727,3.932-13.334,5.42-16.099c0.373,0.013,0.743,0.019,1.11,0.019c8.67,0,15.979-3.435,21.14-9.936
		c6.436-8.106,8.79-20.199,6.145-31.557c-3.241-13.904-16.339-23.617-31.854-23.617c-3.76,0-7.456,0.591-10.982,1.758
		c-6.33,2.094-12.221,6.34-16.586,11.958l-0.431,0.553l-0.229,0.662c-0.77,2.227-1.583,4.539-2.398,6.854
		c-1.155,3.288-2.353,6.686-3.407,9.81l-0.255,0.753l0.034,0.793c0.134,2.919,0.789,5.79,1.95,8.534l0.46,1.089l0.959,0.693
		c2.068,1.494,3.417,2.491,4.428,3.239c1.226,0.908,2.037,1.508,3.045,2.185c1.023,0.688,1.465,1.024,1.854,1.32
		c0.74,0.563,1.289,0.963,3.087,2.038c-1.622,4.045-6.241,12.621-9.474,18.625c-11.056,20.527-12.816,24.452-10.227,27.827
		c5.196,6.775,4.478,13.089,2.959,17.195c-2.812,7.602-10.553,14.138-18.833,15.892c-1.776,0.375-3.608,0.566-5.445,0.566
		c-12.667,0-23.227-8.491-24.564-19.751c-1.191-10.042,2.621-20.534,9.263-25.514l3.899-2.92l-3.441-3.447
		c-2.554-2.559-4.33-5.564-5.275-8.933c-2.569-9.146-0.874-19.417,4.221-25.561l0.933-1.126l0.038-1.462
		c0.174-6.638,0.516-9.8,0.846-11.267c10.661-2.548,15.851-9.173,18.343-14.417c4.537-9.544,3.756-22.537-1.978-33.104
		C130.912,8.625,120.618,2.794,108.676,2.793L108.676,2.793z M124.06,553.814c-0.684-2.406-1.546-6.103-2.179-8.831
		c-2.826-12.133-3.584-15.395-7.236-16.108c-2.832-0.557-4.75-2.084-5.698-4.538c-1.291-3.334-0.596-7.943,1.646-10.962
		c2.229-3,5.874-4.86,9.516-4.86c1.643,0,4.041,0.393,6.14,2.271c2.658,2.38,0.252,11.036-0.773,14.732
		c-1.129,4.066-2.02,7.28,0.986,9.261c0.823,0.542,1.774,0.803,2.916,0.803c3.891,0,16.839-4.255,23.506-6.536
		c2.162,5.423,4.643,11.935,5.009,14.732c-8.301,6.003-12.886,14.18-13.284,23.746c-0.202,4.888,0.757,9.982,2.683,14.891
		c-3.557-5.48-9.062-9.136-15.905-10.514c-0.958-2.035-2.569-6.951-4.807-14.66l-1.078-3.708L124.06,553.814L124.06,553.814z"/>
</g>
<g>
	
		<line fill="none" stroke="#9F502F" stroke-width="16.9867" stroke-miterlimit="10" x1="67.38" y1="312.057" x2="67.38" y2="159.704"/>
	
		<line fill="none" stroke="#9F502F" stroke-width="16.9867" stroke-miterlimit="10" x1="32.339" y1="188.372" x2="102.415" y2="188.372"/>
	
		<line fill="none" stroke="#9F502F" stroke-width="16.9867" stroke-miterlimit="10" x1="19.335" y1="235.883" x2="115.422" y2="235.883"/>
	<g>
		<path fill="#9F502F" d="M28.224,299.707c15.76,0,28.541,7.961,28.541,17.785c0,9.838-12.781,17.788-28.541,17.788
			c-15.75,0-28.534-7.95-28.534-17.788C-0.31,307.668,12.471,299.707,28.224,299.707 M28.224,286.547
			c-23.379,0-41.692,13.593-41.692,30.941c0,17.353,18.313,30.941,41.692,30.941c23.388,0,41.703-13.589,41.703-30.941
			C69.927,300.14,51.612,286.547,28.224,286.547L28.224,286.547z"/>
	</g>
	<g>
		<path fill="#9F502F" d="M106.449,299.707c15.759,0,28.535,7.961,28.535,17.785c0,9.838-12.776,17.788-28.535,17.788
			c-15.758,0-28.529-7.95-28.529-17.788C77.92,307.668,90.689,299.707,106.449,299.707 M106.449,286.547
			c-23.377,0-41.688,13.593-41.688,30.941c0,17.353,18.313,30.941,41.688,30.941c23.382,0,41.696-13.589,41.696-30.941
			C148.143,300.14,129.83,286.547,106.449,286.547L106.449,286.547z"/>
	</g>
	<path fill="#9F502F" d="M106.794,368.818c20.55-1.576,31.676,14.014,28.301,30.718c-3.369,16.704-10.118,16.918-20.894,34.445
		c-10.771,17.526-2.591,39.442-2.591,39.442h16.331c-8.039-20.575-0.737-32.048,6.138-40.775
		c6.875-8.732,20.13-22.738,17.059-45.268c-3.073-22.527-21.152-33.573-42.592-33.428c-21.438,0.146-32.82,17.803-32.82,17.803
		V268.63h30.327v-15.164H75.381v-20.164H59.184v20.334H42.467V268.8h17.061v205.084h16.097c0,0,0-68.359,0-78.104
		C75.625,386.032,86.247,370.392,106.794,368.818z"/>
</g>
</svg>
