<?xml version="1.0" encoding="utf-8"?>
<!-- Generator: Adobe Illustrator 15.0.0, SVG Export Plug-In . SVG Version: 6.00 Build 0)  -->
<!DOCTYPE svg PUBLIC "-//W3C//DTD SVG 1.1//EN" "http://www.w3.org/Graphics/SVG/1.1/DTD/svg11.dtd">
<svg version="1.1" id="Calque_1" xmlns="http://www.w3.org/2000/svg" xmlns:xlink="http://www.w3.org/1999/xlink" x="0px" y="0px"
	 width="1920px" height="183.407px" viewBox="0 0 1920 183.407" enable-background="new 0 0 1920 183.407" xml:space="preserve">
<polygon fill="#9F502F" stroke="#254053" stroke-width="7.4762" stroke-miterlimit="10" points="143.268,163.184 231.366,9.015 
	321.755,163.184 "/>
<polygon fill="#9F502F" stroke="#254053" stroke-width="7.4762" stroke-miterlimit="10" points="121.95,73.336 60.926,178.407 
	184.353,178.407 "/>
<polygon fill="#9F502F" stroke="#254053" stroke-width="7.4762" stroke-miterlimit="10" points="329.261,37.369 410.935,178.23 
	251.721,178.23 "/>
<g>
	<path fill="#254053" d="M380.944,156.225c-2.916,0-5.228-0.848-6.868-2.52c-3.127-3.188-3.03-8.459-2.944-13.111
		c0.047-2.547,0.118-6.395-0.841-6.924c-6.666-3.688-11.969-13.137-12.191-13.537l-2.501-4.5l4.918,1.525
		c1.471,0.457,3.289,0.707,5.124,0.707c2.038,0,3.433-0.304,4.12-0.554c-0.171-0.433-0.539-0.961-1.205-1.888
		c-0.452-0.627-1.014-1.404-1.618-2.355c-2.03-3.201-24.514-41.932-25.693-44.031c-0.315-0.56-0.901-1.043-1.645-1.655
		c-1.884-1.554-4.464-3.682-5.145-9.258c-0.351-2.873-0.897-9.857,1.59-12.667c0.754-0.852,1.724-1.302,2.805-1.302
		c1.652,0,3.313,1.026,5.223,3.229c0.415,0.464,1.149,1.666-0.313,3.323c-0.656,0.743-0.984,1.116,0.288,2.499l7.146,7.143
		l-2.269,1.36c0.001,0,0.001-0.001,0.002-0.001c0.005,0-0.402,0.304-0.503,0.884c-0.132,0.758,0.267,1.833,1.12,3.029
		c1.813,2.536,7.274,11.323,12.558,19.822c4.633,7.451,9.424,15.156,10.271,16.235c0.159,0.2,0.629,0.438,1.431,0.438
		c1.5,0,3.271-0.852,3.517-2.224c0.104-0.588,0.207-1.116,0.299-1.597c0.517-2.688,0.547-3.09-0.05-4.112
		c-0.816-1.397-1.183-3.759-0.252-5.378c0.559-0.973,1.504-1.53,2.594-1.53c1.701,0,3.424,1.329,5.586,4.312
		c2.415,3.332,1.932,7,1.505,10.236c-0.648,4.916-1.207,9.164,6.061,14.039c5.008,3.358,16.523,12.26,15.338,22.336
		c-0.764,6.481-6.53,11.772-17.144,15.729C387.107,155.474,383.735,156.225,380.944,156.225z"/>
	<path fill="#9F502F" d="M338.849,46.223c0.925,0,2.129,0.745,3.678,2.535c0.424,0.409-3.404,2.151,0,5.85l5.333,5.334
		c0,0-3.441,2.064,0,6.883c3.44,4.817,20.991,33.724,22.884,36.132c0.655,0.834,1.804,1.229,3.055,1.229
		c2.366,0,5.099-1.409,5.548-3.922c0.688-3.844,1.204-5.049,0-7.113c-0.754-1.294-0.766-3.804,0.56-3.804
		c0.789,0,2.052,0.89,3.915,3.459c4.99,6.884-5.505,15.657,8.087,24.776c13.594,9.121,24.95,24.604-1.375,34.414
		c-4.07,1.517-7.193,2.164-9.587,2.164c-13.092,0-4.396-19.39-9.654-22.299c-6.224-3.439-11.386-12.73-11.386-12.73
		c1.787,0.556,3.838,0.802,5.735,0.802c3.402,0,6.309-0.79,6.309-2.005c0-1.895-1.376-2.982-3.27-5.963
		c-1.892-2.984-24.089-41.183-25.637-43.938c-1.548-2.753-5.678-3.097-6.538-10.152C335.862,52.618,336.144,46.223,338.849,46.223
		 M338.849,42.094c-1.665,0-3.21,0.709-4.351,1.998c-2.787,3.148-2.677,9.506-2.094,14.286c0.779,6.396,3.849,8.926,5.88,10.601
		c0.46,0.379,1.032,0.851,1.158,1.075c1.183,2.102,23.712,40.907,25.749,44.122c0.386,0.607,0.752,1.144,1.083,1.615
		c-0.203,0.008-0.414,0.012-0.636,0.012c-1.632,0-3.234-0.219-4.512-0.615l-9.835-3.053l5.001,9.003
		c0.575,1.034,5.72,10.053,12.56,14.091c0.292,1.018,0.245,3.582,0.214,5.328c-0.089,4.809-0.199,10.793,3.535,14.596
		c2.045,2.082,4.852,3.139,8.342,3.139c3.042,0,6.648-0.793,11.028-2.424c11.397-4.246,17.612-10.107,18.474-17.422
		c1.271-10.804-9.628-19.855-16.238-24.292c-6.204-4.161-5.79-7.302-5.164-12.056c0.453-3.439,1.017-7.721-1.88-11.716
		c-1.744-2.405-4.146-5.165-7.258-5.165c-1.822,0-3.461,0.96-4.384,2.567c-1.331,2.316-0.878,5.5,0.259,7.446
		c0.219,0.376,0.242,0.415-0.194,2.685c-0.092,0.479-0.192,1.004-0.297,1.588c-0.145,0.199-0.801,0.555-1.49,0.555
		c-0.021,0-0.041,0-0.06-0.001c-1.332-1.937-6.045-9.516-9.889-15.698c-5.3-8.525-10.78-17.342-12.631-19.932
		c-0.412-0.576-0.61-1.004-0.698-1.263l3.998-2.399l-3.739-3.74l-5.232-5.233c2.153-2.701,0.726-4.958,0.096-5.726l0.008-0.006
		C344.178,44.356,341.873,42.094,338.849,42.094L338.849,42.094z"/>
</g>
<g>
	
		<line fill="none" stroke="#254053" stroke-width="5.506" stroke-miterlimit="10" x1="231.237" y1="114.19" x2="231.237" y2="64.807"/>
	
		<line fill="none" stroke="#254053" stroke-width="5.506" stroke-miterlimit="10" x1="219.879" y1="74.099" x2="242.593" y2="74.099"/>
	
		<line fill="none" stroke="#254053" stroke-width="5.506" stroke-miterlimit="10" x1="215.663" y1="89.499" x2="246.809" y2="89.499"/>
	<g>
		<path fill="#254053" d="M218.545,110.187c5.108,0,9.251,2.58,9.251,5.765c0,3.188-4.143,5.766-9.251,5.766
			c-5.105,0-9.249-2.577-9.249-5.766C209.296,112.767,213.439,110.187,218.545,110.187 M218.545,105.92
			c-7.578,0-13.514,4.406-13.514,10.029c0,5.625,5.936,10.029,13.514,10.029c7.58,0,13.517-4.404,13.517-10.029
			C232.062,110.327,226.125,105.92,218.545,105.92L218.545,105.92z"/>
	</g>
	<g>
		<path fill="#254053" d="M243.9,110.187c5.108,0,9.249,2.58,9.249,5.765c0,3.188-4.141,5.766-9.249,5.766s-9.248-2.577-9.248-5.766
			C234.652,112.767,238.792,110.187,243.9,110.187 M243.9,105.92c-7.578,0-13.513,4.406-13.513,10.029
			c0,5.625,5.936,10.029,13.513,10.029c7.578,0,13.514-4.404,13.514-10.029C257.414,110.327,251.478,105.92,243.9,105.92
			L243.9,105.92z"/>
	</g>
</g>
<g>
	
		<linearGradient id="SVGID_1_" gradientUnits="userSpaceOnUse" x1="904.9292" y1="-530.459" x2="904.9292" y2="-371.4672" gradientTransform="matrix(1 0 0 -1 -389.5801 -397.4658)">
		<stop  offset="0" style="stop-color:#9F502F"/>
		<stop  offset="1" style="stop-color:#254053;stop-opacity:0"/>
	</linearGradient>
	<path fill="url(#SVGID_1_)" d="M503.119,42.911h12.555l-2.718,81.259l14.623,2.338v8.279H503.12L503.119,42.911L503.119,42.911z"/>
	
		<linearGradient id="SVGID_2_" gradientUnits="userSpaceOnUse" x1="937.8643" y1="-530.4561" x2="937.8643" y2="-371.4696" gradientTransform="matrix(1 0 0 -1 -389.5801 -397.4658)">
		<stop  offset="0" style="stop-color:#9F502F"/>
		<stop  offset="1" style="stop-color:#254053;stop-opacity:0"/>
	</linearGradient>
	<path fill="url(#SVGID_2_)" d="M537.22,133.553c-1.164-0.811-1.748-1.959-1.748-3.424V65.163c0-3.791,2.202-5.696,6.601-5.696
		h13.458c1.638,0,2.976,0.673,4.012,2.011c1.038,1.337,1.555,2.864,1.555,4.592v31.185l-5.309,4.147l-11.384-0.651l-0.133,25.623
		c0,0.693,0.343,1.041,1.036,1.041l7.638,0.127l2.193-8.541h5.565v15.787h-18.635C540,134.788,538.384,134.375,537.22,133.553z
		 M551.259,93.627c0.434,0,0.731-0.082,0.905-0.252c0.175-0.168,0.259-0.561,0.259-1.17l0.778-24.063
		c0-0.779-0.391-1.169-1.164-1.169h-7.509c-0.518,0-0.845,0.085-0.971,0.264c-0.131,0.168-0.193,0.473-0.193,0.905l0.646,25.483
		h7.247L551.259,93.627L551.259,93.627z"/>
	
		<linearGradient id="SVGID_3_" gradientUnits="userSpaceOnUse" x1="993.2529" y1="-530.4565" x2="993.2529" y2="-371.4674" gradientTransform="matrix(1 0 0 -1 -389.5801 -397.4658)">
		<stop  offset="0" style="stop-color:#9F502F"/>
		<stop  offset="1" style="stop-color:#254053;stop-opacity:0"/>
	</linearGradient>
	<path fill="url(#SVGID_3_)" d="M591.114,59.466h18.635c2.074,0,3.604,0.651,4.598,1.948c0.989,1.295,1.489,3.064,1.489,5.307
		l0.52,62.24c0,1.729-0.822,3.188-2.459,4.4c-1.645,1.213-3.67,1.813-6.082,1.813c-2.767,0-5.608-0.18-8.541-0.518l-0.648,16.817
		h-7.635L591.114,59.466z M607.554,126.508l0.773-59.271c0-0.264-0.063-0.432-0.193-0.517c-0.127-0.095-0.454-0.179-0.971-0.263
		l-5.955-0.39l-1.163,0.779l-1.164,60.039l7.504,0.777L607.554,126.508z"/>
	
		<linearGradient id="SVGID_4_" gradientUnits="userSpaceOnUse" x1="1027.9316" y1="-530.457" x2="1027.9316" y2="-371.4685" gradientTransform="matrix(1 0 0 -1 -389.5801 -397.4658)">
		<stop  offset="0" style="stop-color:#9F502F"/>
		<stop  offset="1" style="stop-color:#254053;stop-opacity:0"/>
	</linearGradient>
	<path fill="url(#SVGID_4_)" d="M628.774,67.238l-2.719-1.559v-6.213h24.333l0.26,19.155h-5.565c0-0.947-0.259-3.085-0.779-6.402
		c-0.517-3.328-1.03-4.981-1.548-4.981l-7.119-0.137l1.682,67.687h-8.541L628.774,67.238L628.774,67.238z"/>
	
		<linearGradient id="SVGID_5_" gradientUnits="userSpaceOnUse" x1="1060.8027" y1="-530.4561" x2="1060.8027" y2="-371.4696" gradientTransform="matrix(1 0 0 -1 -389.5801 -397.4658)">
		<stop  offset="0" style="stop-color:#9F502F"/>
		<stop  offset="1" style="stop-color:#254053;stop-opacity:0"/>
	</linearGradient>
	<path fill="url(#SVGID_5_)" d="M660.158,133.553c-1.164-0.811-1.748-1.959-1.748-3.424V65.163c0-3.791,2.201-5.696,6.599-5.696
		h13.459c1.639,0,2.977,0.673,4.013,2.011c1.036,1.337,1.554,2.864,1.554,4.592v31.185l-5.31,4.147l-11.384-0.651l-0.133,25.623
		c0,0.693,0.343,1.041,1.038,1.041l7.636,0.127l2.195-8.541h5.563v15.787h-18.635C662.938,134.788,661.321,134.375,660.158,133.553z
		 M674.195,93.627c0.432,0,0.73-0.082,0.904-0.252c0.176-0.168,0.26-0.561,0.26-1.17l0.777-24.063c0-0.779-0.39-1.169-1.164-1.169
		h-7.508c-0.517,0-0.844,0.085-0.97,0.264c-0.131,0.168-0.193,0.473-0.193,0.905l0.646,25.483h7.246L674.195,93.627L674.195,93.627z
		"/>
	
		<linearGradient id="SVGID_6_" gradientUnits="userSpaceOnUse" x1="1105.3193" y1="-530.4565" x2="1105.3193" y2="-371.4678" gradientTransform="matrix(1 0 0 -1 -389.5801 -397.4658)">
		<stop  offset="0" style="stop-color:#9F502F"/>
		<stop  offset="1" style="stop-color:#254053;stop-opacity:0"/>
	</linearGradient>
	<path fill="url(#SVGID_6_)" d="M728.68,71.628c0-0.253-0.063-0.421-0.193-0.516c-0.131-0.084-0.452-0.167-0.971-0.253h-8.541
		l0.906,63.927h-8.673l0.39-66.78c0-0.253-0.063-0.432-0.193-0.516c-0.131-0.085-0.453-0.169-0.97-0.253l-7.51-0.517
		c-0.688,0-1.03,0.338-1.03,1.032l0.384,67.034h-9.831v-4.656l2.068-2.338l-0.132-68.327h16.955c3.364,0,5.692,1.252,6.987,3.758
		c2.154-0.348,5.519-0.515,10.094-0.515c2.328,0,4.227,0.579,5.692,1.737c1.464,1.17,2.202,2.654,2.202,4.465l-0.133,60.956
		l2.85,1.422v6.729h-10.869L728.68,71.628z"/>
	
		<linearGradient id="SVGID_7_" gradientUnits="userSpaceOnUse" x1="1142.3262" y1="-530.4561" x2="1142.3262" y2="-371.4694" gradientTransform="matrix(1 0 0 -1 -389.5801 -397.4658)">
		<stop  offset="0" style="stop-color:#9F502F"/>
		<stop  offset="1" style="stop-color:#254053;stop-opacity:0"/>
	</linearGradient>
	<path fill="url(#SVGID_7_)" d="M746.536,39.541h12.037V51.83l-11.521,0.391L746.536,39.541z M748.736,59.466h8.149l2.069,75.32
		h-10.221L748.736,59.466L748.736,59.466z"/>
	
		<linearGradient id="SVGID_8_" gradientUnits="userSpaceOnUse" x1="1172.0918" y1="-530.4561" x2="1172.0918" y2="-371.4696" gradientTransform="matrix(1 0 0 -1 -389.5801 -397.4658)">
		<stop  offset="0" style="stop-color:#9F502F"/>
		<stop  offset="1" style="stop-color:#254053;stop-opacity:0"/>
	</linearGradient>
	<path fill="url(#SVGID_8_)" d="M771.447,133.553c-1.163-0.811-1.748-1.959-1.748-3.424V65.163c0-3.791,2.2-5.696,6.599-5.696
		h13.459c1.64,0,2.977,0.673,4.013,2.011c1.036,1.337,1.554,2.864,1.554,4.592v31.185l-5.31,4.147l-11.384-0.651l-0.133,25.623
		c0,0.693,0.344,1.041,1.037,1.041l7.636,0.127l2.196-8.541h5.563v15.787h-18.635C774.229,134.788,772.611,134.375,771.447,133.553z
		 M785.485,93.627c0.433,0,0.73-0.082,0.904-0.252c0.176-0.168,0.261-0.561,0.261-1.17l0.777-24.063
		c0-0.779-0.391-1.169-1.164-1.169h-7.509c-0.517,0-0.844,0.085-0.971,0.264c-0.131,0.168-0.193,0.473-0.193,0.905l0.646,25.483
		h7.247L785.485,93.627L785.485,93.627z"/>
	
		<linearGradient id="SVGID_9_" gradientUnits="userSpaceOnUse" x1="1205.9961" y1="-530.457" x2="1205.9961" y2="-371.4685" gradientTransform="matrix(1 0 0 -1 -389.5801 -397.4658)">
		<stop  offset="0" style="stop-color:#9F502F"/>
		<stop  offset="1" style="stop-color:#254053;stop-opacity:0"/>
	</linearGradient>
	<path fill="url(#SVGID_9_)" d="M806.839,67.238l-2.718-1.559v-6.213h24.333l0.258,19.155h-5.565c0-0.947-0.258-3.085-0.778-6.402
		c-0.517-3.328-1.03-4.981-1.548-4.981l-7.118-0.137l1.68,67.687h-8.54L806.839,67.238L806.839,67.238z"/>
	
		<linearGradient id="SVGID_10_" gradientUnits="userSpaceOnUse" x1="1254.002" y1="-530.4561" x2="1254.002" y2="-371.4694" gradientTransform="matrix(1 0 0 -1 -389.5801 -397.4658)">
		<stop  offset="0" style="stop-color:#9F502F"/>
		<stop  offset="1" style="stop-color:#254053;stop-opacity:0"/>
	</linearGradient>
	<path fill="url(#SVGID_10_)" d="M855.493,67.238h-5.303v-7.771h5.177l-0.131-10.216c0-1.99,0.494-3.54,1.487-4.666
		c0.99-1.116,2.35-1.674,4.076-1.674h17.854v7.107l-14.75,1.296l-0.258,8.152h12.163v6.865l-12.036,0.906l0.646,67.549h-9.188
		L855.493,67.238z"/>
	
		<linearGradient id="SVGID_11_" gradientUnits="userSpaceOnUse" x1="1282.9932" y1="-530.4561" x2="1282.9932" y2="-371.4696" gradientTransform="matrix(1 0 0 -1 -389.5801 -397.4658)">
		<stop  offset="0" style="stop-color:#9F502F"/>
		<stop  offset="1" style="stop-color:#254053;stop-opacity:0"/>
	</linearGradient>
	<path fill="url(#SVGID_11_)" d="M882.349,133.553c-1.164-0.811-1.748-1.959-1.748-3.424V65.163c0-3.791,2.201-5.696,6.6-5.696
		h13.459c1.638,0,2.976,0.673,4.013,2.011c1.038,1.337,1.554,2.864,1.554,4.592v31.185l-5.309,4.147l-11.384-0.651l-0.133,25.623
		c0,0.693,0.344,1.041,1.038,1.041l7.635,0.127L900.27,119h5.563v15.787h-18.635C885.129,134.788,883.513,134.375,882.349,133.553z
		 M896.388,93.627c0.434,0,0.73-0.082,0.903-0.252c0.175-0.168,0.26-0.561,0.26-1.17l0.778-24.063c0-0.779-0.39-1.169-1.164-1.169
		h-7.509c-0.518,0-0.843,0.085-0.969,0.264c-0.134,0.168-0.194,0.473-0.194,0.905l0.646,25.483h7.248L896.388,93.627L896.388,93.627
		z"/>
	
		<linearGradient id="SVGID_12_" gradientUnits="userSpaceOnUse" x1="1316.9629" y1="-530.459" x2="1316.9629" y2="-371.4662" gradientTransform="matrix(1 0 0 -1 -389.5801 -397.4658)">
		<stop  offset="0" style="stop-color:#9F502F"/>
		<stop  offset="1" style="stop-color:#254053;stop-opacity:0"/>
	</linearGradient>
	<path fill="url(#SVGID_12_)" d="M916.059,116.797h4.396l2.59,10.353l5.693,0.127l1.686-26.653l-13.458-3.105v-35.46l4.271-2.589
		h16.563l-0.521,15.017h-3.88l-2.07-8.151l-5.564,0.77l-1.555,23.042l14.497,2.717l-1.554,35.588c0,1.379-0.906,2.777-2.717,4.2
		c-1.813,1.423-3.497,2.142-5.053,2.142h-12.42L916.059,116.797z"/>
	
		<linearGradient id="SVGID_13_" gradientUnits="userSpaceOnUse" x1="1348.8574" y1="-530.4561" x2="1348.8574" y2="-371.4694" gradientTransform="matrix(1 0 0 -1 -389.5801 -397.4658)">
		<stop  offset="0" style="stop-color:#9F502F"/>
		<stop  offset="1" style="stop-color:#254053;stop-opacity:0"/>
	</linearGradient>
	<path fill="url(#SVGID_13_)" d="M950.475,128.446l0.907-61.987h-5.562v-3.887l5.562-2.97l2.199-16.691h6.214v16.556h12.681v7.771
		h-12.938v58.229l7.37,2.326l1.296-10.73h4.529v17.725h-16.692L950.475,128.446z"/>
	
		<linearGradient id="SVGID_14_" gradientUnits="userSpaceOnUse" x1="1374.0898" y1="-530.4561" x2="1374.0898" y2="-371.4694" gradientTransform="matrix(1 0 0 -1 -389.5801 -397.4658)">
		<stop  offset="0" style="stop-color:#9F502F"/>
		<stop  offset="1" style="stop-color:#254053;stop-opacity:0"/>
	</linearGradient>
	<path fill="url(#SVGID_14_)" d="M978.299,39.541h12.037V51.83l-11.521,0.391L978.299,39.541z M980.501,59.466h8.15l2.068,75.32
		H980.5L980.501,59.466L980.501,59.466z"/>
	
		<linearGradient id="SVGID_15_" gradientUnits="userSpaceOnUse" x1="1401.1367" y1="-530.4561" x2="1401.1367" y2="-371.4696" gradientTransform="matrix(1 0 0 -1 -389.5801 -397.4658)">
		<stop  offset="0" style="stop-color:#9F502F"/>
		<stop  offset="1" style="stop-color:#254053;stop-opacity:0"/>
	</linearGradient>
	<path fill="url(#SVGID_15_)" d="M997.192,59.466h8.931l4.654,68.074h0.521l5.949-68.074h8.673l-9.969,75.32h-11.904L997.192,59.466
		z"/>
	
		<linearGradient id="SVGID_16_" gradientUnits="userSpaceOnUse" x1="1434.9736" y1="-530.4561" x2="1434.9736" y2="-371.4696" gradientTransform="matrix(1 0 0 -1 -389.5801 -397.4658)">
		<stop  offset="0" style="stop-color:#9F502F"/>
		<stop  offset="1" style="stop-color:#254053;stop-opacity:0"/>
	</linearGradient>
	<path fill="url(#SVGID_16_)" d="M1034.2,133.038c-1.641-1.158-2.459-2.611-2.459-4.338l0.132-31.574
		c-0.089-1.813,0.404-3.254,1.482-4.328c1.079-1.083,2.48-1.621,4.209-1.621l10.867,0.778l0.392-24.327l-1.556-0.779l-13.975-0.907
		v-6.475h17.08c2.416,0,4.146,0.632,5.177,1.883c1.038,1.243,1.554,3.424,1.554,6.532l-0.39,59.269l2.332,1.297v6.34h-18.767
		C1037.864,134.788,1035.838,134.208,1034.2,133.038z M1048.434,126.245l-0.26-27.17h-7.245l-0.646,0.768l-0.52,26.402
		c0,0.264,0.063,0.432,0.195,0.52c0.125,0.083,0.452,0.179,0.969,0.263l6.86,0.253L1048.434,126.245z"/>
	
		<linearGradient id="SVGID_17_" gradientUnits="userSpaceOnUse" x1="1462.8564" y1="-530.457" x2="1462.8564" y2="-371.4687" gradientTransform="matrix(1 0 0 -1 -389.5801 -397.4658)">
		<stop  offset="0" style="stop-color:#9F502F"/>
		<stop  offset="1" style="stop-color:#254053;stop-opacity:0"/>
	</linearGradient>
	<path fill="url(#SVGID_17_)" d="M1069.264,50.018l-2.717-2.717V42.91h10.094l0.904,85.02l2.334,1.421l0.127,5.437h-11.517
		L1069.264,50.018z"/>
	
		<linearGradient id="SVGID_18_" gradientUnits="userSpaceOnUse" x1="1510.0293" y1="-530.4561" x2="1510.0293" y2="-371.4696" gradientTransform="matrix(1 0 0 -1 -389.5801 -397.4658)">
		<stop  offset="0" style="stop-color:#9F502F"/>
		<stop  offset="1" style="stop-color:#254053;stop-opacity:0"/>
	</linearGradient>
	<path fill="url(#SVGID_18_)" d="M1108.22,62.055c1.638-1.03,3.646-1.747,6.021-2.138c2.37-0.378,5.886-0.579,10.547-0.579
		c2.328,0,4.224,0.579,5.691,1.749c1.466,1.169,2.2,2.654,2.2,4.464l-0.131,69.235h-8.024l0.778-66.78
		c0-0.253-0.063-0.432-0.193-0.516c-0.126-0.085-0.453-0.169-0.97-0.253h-7.636l-0.778,67.549h-7.505V62.055L1108.22,62.055z"/>
	
		<linearGradient id="SVGID_19_" gradientUnits="userSpaceOnUse" x1="1546.7188" y1="-530.4561" x2="1546.7188" y2="-371.4691" gradientTransform="matrix(1 0 0 -1 -389.5801 -397.4658)">
		<stop  offset="0" style="stop-color:#9F502F"/>
		<stop  offset="1" style="stop-color:#254053;stop-opacity:0"/>
	</linearGradient>
	<path fill="url(#SVGID_19_)" d="M1146.075,133.553c-1.165-0.811-1.749-1.959-1.749-3.424V65.163c0-3.791,2.201-5.696,6.599-5.696
		h13.46c1.638,0,2.977,0.673,4.012,2.011c1.037,1.337,1.555,2.864,1.555,4.592v31.185l-5.309,4.147l-11.387-0.651l-0.13,25.623
		c0,0.693,0.341,1.041,1.036,1.041l7.637,0.127l2.194-8.541h5.563v15.787h-18.636
		C1148.854,134.788,1147.238,134.375,1146.075,133.553z M1150.408,48.86l10.868-13.975l5.954,6.202l-12.423,10.879L1150.408,48.86z
		 M1160.112,93.627c0.433,0,0.729-0.082,0.905-0.252c0.174-0.168,0.259-0.561,0.259-1.17l0.778-24.063
		c0-0.779-0.391-1.169-1.162-1.169h-7.511c-0.518,0-0.845,0.085-0.97,0.264c-0.132,0.168-0.193,0.473-0.193,0.905l0.646,25.483
		h7.247V93.627L1160.112,93.627z"/>
	
		<linearGradient id="SVGID_20_" gradientUnits="userSpaceOnUse" x1="1582.0449" y1="-530.457" x2="1582.0449" y2="-371.4685" gradientTransform="matrix(1 0 0 -1 -389.5801 -397.4658)">
		<stop  offset="0" style="stop-color:#9F502F"/>
		<stop  offset="1" style="stop-color:#254053;stop-opacity:0"/>
	</linearGradient>
	<path fill="url(#SVGID_20_)" d="M1182.438,133.553c-1.161-0.811-1.748-1.959-1.748-3.424V64.9c0-1.98,0.56-3.38,1.682-4.202
		c1.122-0.821,2.765-1.231,4.918-1.231h16.563l-0.39,15.405h-5.303l-1.428-6.99c-0.175-0.603-0.561-0.907-1.163-0.907h-6.21
		c-0.521,0-0.844,0.085-0.975,0.264c-0.126,0.168-0.192,0.473-0.192,0.905l1.295,58.229c0,0.691,0.343,1.041,1.038,1.041
		l6.729,0.771c0.516,0,0.857-0.39,1.031-1.159l0.391-8.023h5.564v15.787h-16.955C1185.22,134.788,1183.604,134.375,1182.438,133.553
		z"/>
	
		<linearGradient id="SVGID_21_" gradientUnits="userSpaceOnUse" x1="1614.7227" y1="-530.4561" x2="1614.7227" y2="-371.4696" gradientTransform="matrix(1 0 0 -1 -389.5801 -397.4658)">
		<stop  offset="0" style="stop-color:#9F502F"/>
		<stop  offset="1" style="stop-color:#254053;stop-opacity:0"/>
	</linearGradient>
	<path fill="url(#SVGID_21_)" d="M1213.948,60.508c1.813-0.432,3.646-0.737,5.498-0.906c1.856-0.179,4.854-0.264,8.994-0.264
		c2.333,0,4.228,0.579,5.694,1.749c1.465,1.169,2.202,2.654,2.202,4.464v10.996h-6.729l-0.646-8.541
		c0-0.253-0.067-0.432-0.194-0.516c-0.133-0.085-0.452-0.169-0.97-0.253l-5.563-0.653l0.259,68.202h-8.543L1213.948,60.508
		L1213.948,60.508z"/>
	
		<linearGradient id="SVGID_22_" gradientUnits="userSpaceOnUse" x1="1646.9443" y1="-530.457" x2="1646.9443" y2="-371.4684" gradientTransform="matrix(1 0 0 -1 -389.5801 -397.4658)">
		<stop  offset="0" style="stop-color:#9F502F"/>
		<stop  offset="1" style="stop-color:#254053;stop-opacity:0"/>
	</linearGradient>
	<path fill="url(#SVGID_22_)" d="M1246.623,133.1c-1.511-1.116-2.265-2.971-2.265-5.561V62.182c1.638-1.032,3.839-1.812,6.598-2.327
		c2.761-0.517,6.388-0.769,10.873-0.769c2.413,0,4.438,0.602,6.083,1.812c1.638,1.2,2.458,2.675,2.458,4.392l-0.903,69.498h-15.271
		C1250.657,134.788,1248.129,134.227,1246.623,133.1z M1261.571,127.024l0.771-59.271c0-0.263-0.063-0.432-0.191-0.516
		c-0.127-0.084-0.452-0.179-0.972-0.264l-6.985-0.39l-1.164,0.779l-0.779,60.051l8.152,0.771L1261.571,127.024z"/>
	
		<linearGradient id="SVGID_23_" gradientUnits="userSpaceOnUse" x1="1692.2344" y1="-530.4561" x2="1692.2344" y2="-371.4696" gradientTransform="matrix(1 0 0 -1 -389.5801 -397.4658)">
		<stop  offset="0" style="stop-color:#9F502F"/>
		<stop  offset="1" style="stop-color:#254053;stop-opacity:0"/>
	</linearGradient>
	<path fill="url(#SVGID_23_)" d="M1282.271,67.238l-2.719-3.106v-4.665h39.987l5.177,3.758l1.038,71.436l-9.063,0.127V68.533
		c0-0.863-0.386-1.295-1.163-1.295l-7.764,0.253l0.773,65.609l-3.49,1.688h-5.824l0.646-65.486c0-0.432-0.066-0.705-0.194-0.842
		c-0.13-0.126-0.452-0.231-0.974-0.316l-7.763-0.905l-0.132,67.548h-9.572L1282.271,67.238z"/>
	
		<linearGradient id="SVGID_24_" gradientUnits="userSpaceOnUse" x1="1739.3359" y1="-530.4561" x2="1739.3359" y2="-371.4696" gradientTransform="matrix(1 0 0 -1 -389.5801 -397.4658)">
		<stop  offset="0" style="stop-color:#9F502F"/>
		<stop  offset="1" style="stop-color:#254053;stop-opacity:0"/>
	</linearGradient>
	<path fill="url(#SVGID_24_)" d="M1338.563,133.038c-1.641-1.158-2.459-2.611-2.459-4.338l0.133-31.574
		c-0.092-1.813,0.402-3.254,1.483-4.328c1.077-1.083,2.479-1.621,4.207-1.621l10.866,0.778l0.393-24.327l-1.555-0.779l-13.976-0.907
		v-6.475h17.081c2.417,0,4.145,0.632,5.177,1.883c1.037,1.243,1.554,3.424,1.554,6.532l-0.391,59.269l2.333,1.297v6.34h-18.768
		C1342.229,134.788,1340.2,134.208,1338.563,133.038z M1352.795,126.245l-0.259-27.17h-7.245l-0.646,0.768l-0.519,26.402
		c0,0.264,0.063,0.432,0.195,0.52c0.126,0.083,0.452,0.179,0.969,0.263l6.86,0.253L1352.795,126.245z"/>
	
		<linearGradient id="SVGID_25_" gradientUnits="userSpaceOnUse" x1="1774.666" y1="-530.4561" x2="1774.666" y2="-371.4696" gradientTransform="matrix(1 0 0 -1 -389.5801 -397.4658)">
		<stop  offset="0" style="stop-color:#9F502F"/>
		<stop  offset="1" style="stop-color:#254053;stop-opacity:0"/>
	</linearGradient>
	<path fill="url(#SVGID_25_)" d="M1372.855,62.055c1.639-1.03,3.645-1.747,6.021-2.138c2.367-0.378,5.886-0.579,10.546-0.579
		c2.327,0,4.226,0.579,5.691,1.749c1.465,1.169,2.201,2.654,2.201,4.464l-0.132,69.235h-8.024l0.779-66.78
		c0-0.253-0.063-0.432-0.194-0.516c-0.125-0.085-0.452-0.169-0.969-0.253h-7.637l-0.778,67.549h-7.504L1372.855,62.055
		L1372.855,62.055z"/>
	
		<linearGradient id="SVGID_26_" gradientUnits="userSpaceOnUse" x1="1808.6299" y1="-530.459" x2="1808.6299" y2="-371.4672" gradientTransform="matrix(1 0 0 -1 -389.5801 -397.4658)">
		<stop  offset="0" style="stop-color:#9F502F"/>
		<stop  offset="1" style="stop-color:#254053;stop-opacity:0"/>
	</linearGradient>
	<path fill="url(#SVGID_26_)" d="M1411.933,132.974c-1.12-1.212-1.638-2.718-1.552-4.528l0.903-61.987h-5.562v-6.992h5.69
		l0.127-13.976l3.364-2.58h5.564l-0.774,16.556h12.683v7.771h-11.774c-1.121,0-1.686,0.684-1.686,2.063l1.429,57.586l11.384,1.296
		v6.604h-15.787C1414.392,134.788,1413.056,134.186,1411.933,132.974z"/>
	
		<linearGradient id="SVGID_27_" gradientUnits="userSpaceOnUse" x1="1833.9932" y1="-530.4561" x2="1833.9932" y2="-371.4694" gradientTransform="matrix(1 0 0 -1 -389.5801 -397.4658)">
		<stop  offset="0" style="stop-color:#9F502F"/>
		<stop  offset="1" style="stop-color:#254053;stop-opacity:0"/>
	</linearGradient>
	<path fill="url(#SVGID_27_)" d="M1438.204,39.541h12.037V51.83l-11.521,0.391L1438.204,39.541z M1440.404,59.466h8.149l2.068,75.32
		h-10.221L1440.404,59.466L1440.404,59.466z"/>
	
		<linearGradient id="SVGID_28_" gradientUnits="userSpaceOnUse" x1="1862.7207" y1="-530.457" x2="1862.7207" y2="-371.4685" gradientTransform="matrix(1 0 0 -1 -389.5801 -397.4658)">
		<stop  offset="0" style="stop-color:#9F502F"/>
		<stop  offset="1" style="stop-color:#254053;stop-opacity:0"/>
	</linearGradient>
	<path fill="url(#SVGID_28_)" d="M1461.367,130.129V64.9l6.6-5.434h16.564l-0.391,13.331h-5.303l-1.43-4.916
		c-0.174-0.603-0.56-0.907-1.163-0.907h-5.437c-0.516,0-0.843,0.085-0.969,0.264c-0.133,0.168-0.195,0.473-0.195,0.905l1.164,58.229
		c0,0.611,0.344,0.959,1.038,1.043l13.068,1.422v5.951h-16.954L1461.367,130.129z"/>
	
		<linearGradient id="SVGID_29_" gradientUnits="userSpaceOnUse" x1="1897.1436" y1="-530.459" x2="1897.1436" y2="-371.4662" gradientTransform="matrix(1 0 0 -1 -389.5801 -397.4658)">
		<stop  offset="0" style="stop-color:#9F502F"/>
		<stop  offset="1" style="stop-color:#254053;stop-opacity:0"/>
	</linearGradient>
	<path fill="url(#SVGID_29_)" d="M1494.104,129.351V63.614l5.566-4.147h16.177l5.177,3.621v67.043l-8.156,4.656h-11.126
		L1494.104,129.351z M1510.67,126.633c0.52,0,0.839-0.063,0.97-0.199c0.134-0.125,0.193-0.316,0.193-0.578l1.298-58.492
		c0-0.432-0.068-0.737-0.196-0.905c-0.131-0.168-0.45-0.264-0.975-0.264h-8.021c-0.778,0-1.162,0.39-1.162,1.169v58.492
		c0,0.262,0.063,0.453,0.188,0.578c0.132,0.137,0.451,0.199,0.975,0.199H1510.67z"/>
	
		<linearGradient id="SVGID_30_" gradientUnits="userSpaceOnUse" x1="1938.291" y1="-530.4585" x2="1938.291" y2="-371.4668" gradientTransform="matrix(1 0 0 -1 -389.5801 -397.4658)">
		<stop  offset="0" style="stop-color:#9F502F"/>
		<stop  offset="1" style="stop-color:#254053;stop-opacity:0"/>
	</linearGradient>
	<path fill="url(#SVGID_30_)" d="M1528.137,87.426l41.149,1.158v6.34h-40.769L1528.137,87.426z"/>
	
		<linearGradient id="SVGID_31_" gradientUnits="userSpaceOnUse" x1="1987.0771" y1="-530.4565" x2="1987.0771" y2="-371.4678" gradientTransform="matrix(1 0 0 -1 -389.5801 -397.4658)">
		<stop  offset="0" style="stop-color:#9F502F"/>
		<stop  offset="1" style="stop-color:#254053;stop-opacity:0"/>
	</linearGradient>
	<path fill="url(#SVGID_31_)" d="M1610.438,71.628c0-0.253-0.063-0.421-0.194-0.516c-0.131-0.084-0.452-0.167-0.968-0.253h-8.543
		l0.905,63.927h-8.674l0.393-66.78c0-0.253-0.063-0.432-0.194-0.516c-0.131-0.085-0.451-0.169-0.97-0.253l-7.511-0.517
		c-0.688,0-1.03,0.338-1.03,1.032l0.385,67.034h-9.829v-4.656l2.067-2.338l-0.131-68.327h16.954c3.364,0,5.691,1.252,6.987,3.758
		c2.152-0.348,5.521-0.515,10.095-0.515c2.326,0,4.224,0.579,5.691,1.737c1.463,1.17,2.199,2.654,2.199,4.465l-0.132,60.956
		l2.849,1.422v6.729h-10.866L1610.438,71.628z"/>
	
		<linearGradient id="SVGID_32_" gradientUnits="userSpaceOnUse" x1="2032.8877" y1="-530.457" x2="2032.8877" y2="-371.4685" gradientTransform="matrix(1 0 0 -1 -389.5801 -397.4658)">
		<stop  offset="0" style="stop-color:#9F502F"/>
		<stop  offset="1" style="stop-color:#254053;stop-opacity:0"/>
	</linearGradient>
	<path fill="url(#SVGID_32_)" d="M1629.848,130.647V63.614l3.622-4.275h5.052v66.779c0,0.771,0.385,1.159,1.162,1.159h8.021
		c0.521,0,0.844-0.084,0.977-0.253c0.126-0.18,0.193-0.475,0.193-0.906l-1.295-66.651h9.188v71.696l-5.179,3.625h-16.176
		L1629.848,130.647z"/>
	
		<linearGradient id="SVGID_33_" gradientUnits="userSpaceOnUse" x1="2068.4092" y1="-530.459" x2="2068.4092" y2="-371.4662" gradientTransform="matrix(1 0 0 -1 -389.5801 -397.4658)">
		<stop  offset="0" style="stop-color:#9F502F"/>
		<stop  offset="1" style="stop-color:#254053;stop-opacity:0"/>
	</linearGradient>
	<path fill="url(#SVGID_33_)" d="M1667.504,116.797h4.396l2.592,10.353l5.688,0.127l1.688-26.653l-13.459-3.105v-35.46l4.271-2.589
		h16.565l-0.521,15.017h-3.882l-2.066-8.151l-5.564,0.77l-1.555,23.042l14.497,2.717l-1.556,35.588c0,1.379-0.903,2.777-2.718,4.2
		c-1.813,1.423-3.497,2.142-5.051,2.142h-12.421L1667.504,116.797z"/>
	
		<linearGradient id="SVGID_34_" gradientUnits="userSpaceOnUse" x1="2094.7344" y1="-530.4561" x2="2094.7344" y2="-371.4694" gradientTransform="matrix(1 0 0 -1 -389.5801 -397.4658)">
		<stop  offset="0" style="stop-color:#9F502F"/>
		<stop  offset="1" style="stop-color:#254053;stop-opacity:0"/>
	</linearGradient>
	<path fill="url(#SVGID_34_)" d="M1698.944,39.541h12.036V51.83l-11.521,0.391L1698.944,39.541z M1701.146,59.466h8.148l2.069,75.32
		h-10.222L1701.146,59.466L1701.146,59.466z"/>
	
		<linearGradient id="SVGID_35_" gradientUnits="userSpaceOnUse" x1="2123.4609" y1="-530.457" x2="2123.4609" y2="-371.4685" gradientTransform="matrix(1 0 0 -1 -389.5801 -397.4658)">
		<stop  offset="0" style="stop-color:#9F502F"/>
		<stop  offset="1" style="stop-color:#254053;stop-opacity:0"/>
	</linearGradient>
	<path fill="url(#SVGID_35_)" d="M1722.107,130.129V64.9l6.599-5.434h16.563l-0.389,13.331h-5.305l-1.428-4.916
		c-0.176-0.603-0.56-0.907-1.162-0.907h-5.438c-0.517,0-0.843,0.085-0.97,0.264c-0.13,0.168-0.194,0.473-0.194,0.905l1.164,58.229
		c0,0.611,0.344,0.959,1.037,1.043l13.069,1.422v5.951H1728.7L1722.107,130.129z"/>
	
		<linearGradient id="SVGID_36_" gradientUnits="userSpaceOnUse" x1="2156.7871" y1="-530.4561" x2="2156.7871" y2="-371.4696" gradientTransform="matrix(1 0 0 -1 -389.5801 -397.4658)">
		<stop  offset="0" style="stop-color:#9F502F"/>
		<stop  offset="1" style="stop-color:#254053;stop-opacity:0"/>
	</linearGradient>
	<path fill="url(#SVGID_36_)" d="M1756.015,133.038c-1.64-1.158-2.461-2.611-2.461-4.338l0.136-31.574
		c-0.093-1.813,0.402-3.254,1.48-4.328c1.08-1.083,2.48-1.621,4.207-1.621l10.87,0.778l0.389-24.327l-1.555-0.779l-13.976-0.907
		v-6.475h17.082c2.418,0,4.145,0.632,5.178,1.883c1.036,1.243,1.553,3.424,1.553,6.532l-0.389,59.269l2.332,1.297v6.34h-18.77
		C1759.679,134.788,1757.651,134.208,1756.015,133.038z M1770.248,126.245l-0.26-27.17h-7.245l-0.647,0.768l-0.517,26.402
		c0,0.264,0.063,0.432,0.195,0.52c0.126,0.083,0.452,0.179,0.969,0.263l6.86,0.253L1770.248,126.245z"/>
	
		<linearGradient id="SVGID_37_" gradientUnits="userSpaceOnUse" x1="2186.2949" y1="-530.4565" x2="2186.2949" y2="-371.4656" gradientTransform="matrix(1 0 0 -1 -389.5801 -397.4658)">
		<stop  offset="0" style="stop-color:#9F502F"/>
		<stop  offset="1" style="stop-color:#254053;stop-opacity:0"/>
	</linearGradient>
	<path fill="url(#SVGID_37_)" d="M1790.309,41.478h9.578l-1.038,89.032l4.271,1.685l-0.132,5.824h-12.163L1790.309,41.478z"/>
</g>
</svg>
