<?xml version="1.0" encoding="utf-8"?>
<!-- Generator: Adobe Illustrator 15.0.0, SVG Export Plug-In . SVG Version: 6.00 Build 0)  -->
<!DOCTYPE svg PUBLIC "-//W3C//DTD SVG 1.1//EN" "http://www.w3.org/Graphics/SVG/1.1/DTD/svg11.dtd">
<svg version="1.1" id="Calque_1" xmlns="http://www.w3.org/2000/svg" xmlns:xlink="http://www.w3.org/1999/xlink" x="0px" y="0px"
	 width="1920px" height="456.4px" viewBox="-253.292 -28.607 1920 456.4" enable-background="new -253.292 -28.607 1920 456.4"
	 xml:space="preserve">
<g>
	<path fill="#9F502F" d="M-218.292,357.96l9.204-284.109h73.228v35.214h-49.218v79.63h43.615v20.008l-41.615,7.203V357.96H-218.292z
		 M-13.713,357.96H-31.32l-14.406-106.44l-32.012,15.206l-8.803,91.234h-24.81l18.007-284.109h63.224L-13.713,357.96z
		 M-50.928,93.059c0-1.6-0.801-2.4-2.401-2.4l-17.207,4.001c-1.601,0.801-2.4,2.135-2.4,4.001v140.855c0,1.332,0.8,1.999,2.4,1.999
		l14.806-2.401c1.6,0,2.4-0.799,2.4-2.4L-50.928,93.059z M19.346,78.253c0-1.333,5.469-2.4,16.406-3.201
		c10.938-0.801,21.742-1.201,32.413-1.201h17.208c4.268,0,7.736,1.601,10.403,4.802c2.668,3.202,4.136,7.336,4.402,12.405
		l4.001,115.244l-18.007,23.609l32.013,119.246l-7.603,8.803H86.972L66.564,233.512l-20.408,2.001L37.753,357.96H19.346V78.253z
		 M74.567,203.902c1.601,0,2.4-0.802,2.4-2.401v-99.638l-6.002-6.003l-27.61,2.801l1.201,106.842L74.567,203.902z M239.566,349.958
		h-94.037l9.204-276.106h81.231v31.212h-57.222v82.432h43.617v20.006l-41.615,7.204v102.04l54.021-7.204L239.566,349.958z
		 M384.583,73.852L370.177,357.96h-25.209l-24.409-166.864h-1.602L294.548,357.96h-22.008L256.935,73.852h29.211v249.695h1.601
		l22.809-204.879h17.206l26.811,204.879h2V73.852H384.583z M495.018,357.96h-85.633V73.852h85.633v24.809l-50.019-2.4v90.835
		l50.019,9.204v19.207l-56.821-2.4v114.842l56.821-3.201V357.96z M620.298,357.96h-80.831V73.852h29.613v242.093l6,9.202
		l45.217,5.202V357.96L620.298,357.96z M729.983,357.96h-75.629V73.852h38.814l-8.402,251.295l45.217,7.205V357.96z
		 M1274.849,357.96h-57.23c-13.603,0-23.745-2.269-30.414-6.803c-6.67-4.801-10.003-10.804-10.003-18.006V96.26
		c0-6.402,2.807-11.738,8.405-16.006c5.599-4.268,13.478-6.402,23.606-6.402h65.636V96.26l-6.404,50.02h-26.414l-4.001-45.218
		c0-2.401-1.599-3.601-4.808-3.601h-16.799c-5.07,0-8.81,2.133-11.211,6.402c-2.127,4.001-3.195,8.537-3.195,13.605
		c0,2.934,0.4,4.668,1.192,5.202l8.003,199.676c-0.79,0.267-1.193,0.666-1.193,1.2c0,0.801,1.193,1.2,3.599,1.2h23.606
		c3.209,0,4.807-0.801,4.807-2.4l8.003-31.214h24.815V357.96z M1391.686,357.96h-80.838V73.852h29.61v242.093l6,9.202l45.228,5.202
		V357.96z M1458.544,77.853l-8.392,255.299l33.608-2.401V83.056l28.01,1.6v281.308h-92.035l9.199-288.111H1458.544z
		 M1611.297,208.303c6.405,1.066,11.338,2.268,14.797,3.601c3.736,1.067,5.614,2.802,5.614,5.202v120.847
		c0,4.804-3.475,8.002-10.408,9.604c-6.668,1.601-13.212,2.4-19.604,2.4h-54.424V73.852h45.211c8.268,0,16.146,1.334,23.606,4.001
		c7.74,2.668,11.617,7.737,11.617,15.206l-0.403,4.002L1615.7,199.1c0,2.935-0.277,4.935-0.808,6.002
		C1614.366,206.169,1613.158,207.236,1611.297,208.303z M1570.073,191.897c0,2.134,1.61,3.201,4.807,3.201l15.2-6.002
		c2.403-0.533,3.612-1.734,3.612-3.602l4.001-86.434c0-1.067-1.875-1.601-5.612-1.601h-17.201c-3.196,0-4.807,0.533-4.807,1.601
		V191.897L1570.073,191.897z M1589.289,327.547c4.793,0,8.128-1.068,10.003-3.2c2.127-2.136,3.196-4.269,3.196-6.403
		c0-1.6-0.264-2.399-0.792-2.399v-90.037c0.792-0.532,1.195-0.934,1.195-1.199c0-0.801-0.933-1.201-2.807-1.201h-16.8
		c-0.804,0-1.736,0.267-2.806,0.801c-0.792,0.533-1.333,1.067-1.599,1.6v100.839c0.266,0.266,0.807,0.534,1.599,0.801
		c0.806,0.266,1.737,0.399,2.806,0.399L1589.289,327.547L1589.289,327.547z"/>
	<g>
		<g>
			<path fill="#9F502F" d="M880.385,4.208v182.849L772.566,363.234l54.463,0.555l55.023-20.563l-6.114,55.576H742.555l-8.336-47.24
				l102.816-180.069V39.777l-50.572,5.001l-10.004,8.336l-2.779,82.81h-33.902V30.884l36.682-26.677L880.385,4.208 M892.891-8.296
				h-12.506H776.457h-4.068l-3.287,2.391L732.42,20.772l-5.148,3.746v6.368v105.04v12.505h12.504h33.904h12.091l0.406-12.085
				l2.589-77.208l2.75-2.29l33.015-3.265v114.596L723.361,345.364l-2.242,3.924l0.784,4.451l8.337,47.239l1.825,10.331h10.49H875.94
				h11.205l1.225-11.137l6.114-55.576l2.222-20.192l-19.029,7.109l-52.842,19.75l-30.09-0.307l96.308-157.373l1.839-3.005v-3.521
				V4.208L892.891-8.296L892.891-8.296z"/>
		</g>
		<g>
			<path fill="#9F502F" d="M924.842,1.985l169.509,5.003l-35.014,153.946h19.451v37.793h-27.787l-48.352,210.637l-39.461-10.559
				l52.243-200.078l-77.252-2.778v-34.458l83.921-0.557l20.563-115.598l-123.38,4.446L924.842,1.985 M913.745-10.851l-1.323,11.393
				l-5.56,47.796l-1.682,14.464l14.555-0.523l107.906-3.887l-16.027,90.11l-73.516,0.487l-12.422,0.083v12.421v34.458v12.063
				l12.057,0.434l61.657,2.217l-48.3,184.981l-3.14,12.027l12.008,3.213l39.459,10.56l12.521,3.348l2.899-12.632l46.124-200.928
				h17.828h12.505V198.73v-37.792v-12.504h-12.505h-3.784l31.538-138.67l3.373-14.825l-15.197-0.451l-169.509-5.002L913.745-10.851
				L913.745-10.851z"/>
		</g>
	</g>
</g>
</svg>
