<?xml version="1.0" encoding="utf-8"?>
<!-- Generator: Adobe Illustrator 15.0.0, SVG Export Plug-In . SVG Version: 6.00 Build 0)  -->
<!DOCTYPE svg PUBLIC "-//W3C//DTD SVG 1.1//EN" "http://www.w3.org/Graphics/SVG/1.1/DTD/svg11.dtd">
<svg version="1.1" id="Calque_1" xmlns="http://www.w3.org/2000/svg" xmlns:xlink="http://www.w3.org/1999/xlink" x="0px" y="0px"
	 width="813px" height="613px" viewBox="0 0 813 613" enable-background="new 0 0 813 613" xml:space="preserve">
<path fill="#254053" stroke="#9F502F" stroke-width="5" d="M709.918,430c0,179.171-145.247,324.418-324.418,324.418
	S61.082,609.171,61.082,430S206.329,105.582,385.5,105.582S709.918,250.829,709.918,430z M385.5,759.418
	c181.932,0,329.418-147.486,329.418-329.418c0-181.932-147.486-329.418-329.418-329.418C203.567,100.582,56.082,248.068,56.082,430
	C56.082,611.932,203.567,759.418,385.5,759.418z M813,430c0,236.102-191.398,427.5-427.5,427.5C149.397,857.5-42,666.102-42,430
	C-42,193.898,149.397,2.5,385.5,2.5C621.602,2.5,813,193.898,813,430z"/>
<path fill="none" stroke="#9F502F" stroke-width="5" d="M66.004,531.326h638.993L170.483,173.129L380.958,764.08l221.073-590.951
	L66.004,531.326z"/>
</svg>
