<?xml version="1.0" encoding="utf-8"?>
<!-- Generator: Adobe Illustrator 15.0.0, SVG Export Plug-In . SVG Version: 6.00 Build 0)  -->
<!DOCTYPE svg PUBLIC "-//W3C//DTD SVG 1.1//EN" "http://www.w3.org/Graphics/SVG/1.1/DTD/svg11.dtd">
<svg version="1.1" id="Calque_1" xmlns="http://www.w3.org/2000/svg" xmlns:xlink="http://www.w3.org/1999/xlink" x="0px" y="0px"
	 width="531px" height="531px" viewBox="0 0 531 531" enable-background="new 0 0 531 531" xml:space="preserve">
<g>
	<circle fill="#9F502F" cx="265" cy="265.999" r="252.102"/>
	<circle fill="#254053" cx="265" cy="265.999" r="174.058"/>
	<g>
		<path fill="#254053" d="M265,56.326c28.317,0,55.774,5.54,81.607,16.467c24.965,10.559,47.391,25.681,66.654,44.945
			c19.265,19.265,34.386,41.69,44.944,66.655c10.927,25.833,16.467,53.29,16.467,81.606c0,28.317-5.54,55.774-16.467,81.607
			c-10.559,24.965-25.681,47.391-44.944,66.655s-41.689,34.387-66.654,44.945c-25.833,10.927-53.29,16.467-81.607,16.467
			c-28.317,0-55.773-5.54-81.607-16.467c-24.965-10.56-47.391-25.681-66.655-44.945c-19.264-19.265-34.386-41.69-44.945-66.655
			c-10.927-25.834-16.467-53.29-16.467-81.607c0-28.317,5.54-55.773,16.467-81.606c10.559-24.965,25.681-47.391,44.945-66.655
			c19.265-19.265,41.69-34.386,66.655-44.945C209.227,61.866,236.683,56.326,265,56.326 M265,30.861
			c-129.864,0-235.139,105.275-235.139,235.138c0,129.864,105.275,235.14,235.139,235.14c129.865,0,235.138-105.275,235.138-235.14
			C500.138,136.136,394.865,30.861,265,30.861L265,30.861z"/>
	</g>
	<g id="XMLID_1_">
		<g>
			<polygon fill="#9F502F" points="220.46,317.185 198.542,255.806 266.296,210.566 332.057,254.77 308.603,317.185 			"/>
			<path fill="#254053" d="M198.542,255.806l-14.629,9.773l-77.298,51.605h95.571h18.273l6.006,16.807l36.95,103.457l38.873-103.457
				l6.313-16.807h18.124h98.18l-78.309-52.642l-14.541-9.773l6.278-16.71l37.916-100.901l-94.386,63.012l-15.568,10.396
				l-15.683-10.537l-94.729-63.679l36.661,102.667L198.542,255.806z M97.351,303.311l81.101-54.152l-38.285-107.198l-17.043-47.733
				l42.069,28.274l101.139,67.982l100.647-67.2l43.123-28.792l-18.238,48.532L352.314,248.29l81.899,55.047l45.424,30.531h-54.731
				H320.158l-41.13,109.445l-16.016,42.623l-15.314-42.878l-38.996-109.19H106.615h-55.03L97.351,303.311z"/>
			<polygon fill="#9F502F" points="376.251,137.158 338.335,238.06 281.865,200.17 			"/>
			<polygon fill="#254053" points="308.603,317.185 302.289,333.991 226.466,333.991 220.46,317.185 			"/>
			<polygon fill="#254053" points="332.057,254.77 346.598,264.543 326.727,317.185 308.603,317.185 			"/>
			<polygon fill="#9F502F" points="326.727,317.185 346.598,264.543 424.906,317.185 			"/>
			<polygon fill="#9F502F" points="263.416,437.448 226.466,333.991 302.289,333.991 			"/>
			<polygon fill="#9F502F" points="183.914,265.579 202.187,317.185 106.615,317.185 			"/>
			<polygon fill="#9F502F" points="250.613,200.029 192.545,239.017 155.885,136.35 			"/>
			<polygon fill="#254053" points="338.335,238.06 332.057,254.77 266.296,210.566 281.865,200.17 			"/>
			<polygon fill="#254053" points="202.187,317.185 183.914,265.579 198.542,255.806 220.46,317.185 			"/>
			<polygon fill="#254053" points="198.542,255.806 192.545,239.017 250.613,200.029 266.296,210.566 			"/>
		</g>
		<g>
		</g>
	</g>
	<g>
		
			<line fill="none" stroke="#254053" stroke-width="7.8419" stroke-miterlimit="10" x1="266.095" y1="293.125" x2="266.095" y2="222.792"/>
		
			<line fill="none" stroke="#254053" stroke-width="7.8419" stroke-miterlimit="10" x1="249.917" y1="236.025" x2="282.27" y2="236.025"/>
		
			<line fill="none" stroke="#254053" stroke-width="7.8419" stroke-miterlimit="10" x1="243.914" y1="257.958" x2="288.271" y2="257.958"/>
		<g>
			<path fill="#254053" d="M248.019,287.424c7.273,0,13.176,3.675,13.176,8.211c0,4.54-5.903,8.213-13.176,8.213
				c-7.272,0-13.174-3.673-13.174-8.213C234.845,291.099,240.747,287.424,248.019,287.424 M248.019,281.349
				c-10.793,0-19.248,6.274-19.248,14.283c0,8.011,8.454,14.284,19.248,14.284c10.795,0,19.253-6.273,19.253-14.284
				C267.271,287.623,258.813,281.349,248.019,281.349L248.019,281.349z"/>
		</g>
		<g>
			<path fill="#254053" d="M284.13,287.424c7.272,0,13.172,3.675,13.172,8.211c0,4.54-5.899,8.213-13.172,8.213
				c-7.274,0-13.169-3.673-13.169-8.213C270.96,291.099,276.856,287.424,284.13,287.424 M284.13,281.349
				c-10.792,0-19.246,6.274-19.246,14.283c0,8.011,8.456,14.284,19.246,14.284c10.795,0,19.247-6.273,19.247-14.284
				C303.377,287.623,294.925,281.349,284.13,281.349L284.13,281.349z"/>
		</g>
	</g>
</g>
</svg>
