<?xml version="1.0" encoding="utf-8"?>
<!-- Generator: Adobe Illustrator 15.0.0, SVG Export Plug-In . SVG Version: 6.00 Build 0)  -->
<!DOCTYPE svg PUBLIC "-//W3C//DTD SVG 1.1//EN" "http://www.w3.org/Graphics/SVG/1.1/DTD/svg11.dtd">
<svg version="1.1" id="Calque_1" xmlns="http://www.w3.org/2000/svg" xmlns:xlink="http://www.w3.org/1999/xlink" x="0px" y="0px"
	 width="188.235px" height="219.457px" viewBox="0 0 188.235 219.457" enable-background="new 0 0 188.235 219.457"
	 xml:space="preserve">
<g>
	
		<line fill="none" stroke="#254053" stroke-width="19.0136" stroke-miterlimit="10" x1="94.102" y1="174.29" x2="94.102" y2="3.759"/>
	
		<line fill="none" stroke="#254053" stroke-width="19.0136" stroke-miterlimit="10" x1="54.88" y1="35.846" x2="133.316" y2="35.846"/>
	
		<line fill="none" stroke="#254053" stroke-width="19.0136" stroke-miterlimit="10" x1="40.322" y1="89.026" x2="147.875" y2="89.026"/>
	<g>
		<path fill="#254053" d="M50.273,160.466c17.639,0,31.946,8.91,31.946,19.907c0,11.011-14.307,19.91-31.946,19.91
			c-17.629,0-31.939-8.899-31.939-19.91C18.334,169.376,32.641,160.466,50.273,160.466 M50.273,145.733
			c-26.169,0-46.666,15.216-46.666,34.634C3.607,199.791,24.104,215,50.273,215c26.176,0,46.678-15.21,46.678-34.634
			C96.951,160.949,76.449,145.733,50.273,145.733L50.273,145.733z"/>
	</g>
	<g>
		<path fill="#254053" d="M137.832,160.466c17.637,0,31.936,8.91,31.936,19.907c0,11.011-14.299,19.91-31.936,19.91
			c-17.641,0-31.936-8.899-31.936-19.91C105.896,169.376,120.191,160.466,137.832,160.466 M137.832,145.733
			c-26.169,0-46.665,15.216-46.665,34.634c0,19.424,20.499,34.634,46.665,34.634c26.169,0,46.666-15.21,46.666-34.634
			C184.498,160.949,164.001,145.733,137.832,145.733L137.832,145.733z"/>
	</g>
</g>
</svg>
