<?xml version="1.0" encoding="utf-8"?>
<!-- Generator: Adobe Illustrator 15.0.0, SVG Export Plug-In . SVG Version: 6.00 Build 0)  -->
<!DOCTYPE svg PUBLIC "-//W3C//DTD SVG 1.1//EN" "http://www.w3.org/Graphics/SVG/1.1/DTD/svg11.dtd">
<svg version="1.1" id="Calque_1" xmlns="http://www.w3.org/2000/svg" xmlns:xlink="http://www.w3.org/1999/xlink" x="0px" y="0px"
	 width="95.191px" height="157px" viewBox="0 0 95.191 157" enable-background="new 0 0 95.191 157" xml:space="preserve">
<path fill-rule="evenodd" clip-rule="evenodd" fill="#9F502F" d="M56.411,69.522C73.264,68.23,82.39,81.017,79.624,94.718
	s-8.3,13.877-17.137,28.252c-8.836,14.374-2.125,32.351-2.125,32.351h13.392c-6.59-16.876-0.604-26.286,5.037-33.445
	c5.64-7.16,16.513-18.647,13.991-37.127c-2.521-18.479-17.348-27.538-34.933-27.418C40.264,57.45,30.928,71.931,30.928,71.931
	V29.954h24.875V17.516H30.645V0.979H17.359v16.678H3.649v12.438h13.993v125.606h13.202c0,0,0-56.069,0-64.063
	C30.844,83.645,39.557,70.814,56.411,69.522z"/>
</svg>
