<?xml version="1.0" encoding="utf-8"?>
<!-- Generator: Adobe Illustrator 15.0.0, SVG Export Plug-In . SVG Version: 6.00 Build 0)  -->
<!DOCTYPE svg PUBLIC "-//W3C//DTD SVG 1.1//EN" "http://www.w3.org/Graphics/SVG/1.1/DTD/svg11.dtd">
<svg version="1.1" id="Calque_1" xmlns="http://www.w3.org/2000/svg" xmlns:xlink="http://www.w3.org/1999/xlink" x="0px" y="0px"
	 width="785.755px" height="364.059px" viewBox="785.755 0 785.755 364.059" enable-background="new 785.755 0 785.755 364.059"
	 xml:space="preserve">
<polygon fill="#9F502F" stroke="#254053" stroke-width="7.4762" stroke-miterlimit="10" points="-62.885,-565.555 
	-123.909,-460.484 -0.483,-460.484 "/>
<g>
	<g>
		<g id="XMLID_1_">
			<g>
				<polygon fill="#254053" points="1560.035,60.549 1560.755,69.609 1551.665,69.609 1519.425,69.609 1519.425,353.47 
					1519.425,361.859 1511.035,361.859 1471.795,361.859 1463.135,361.859 1463.415,353.189 1472.445,75.509 1445.135,66.409 
					1438.215,64.099 1439.535,56.939 1445.545,24.149 1446.885,16.789 1454.354,17.299 1549.925,23.759 1557.145,24.25 
					1557.715,31.459 				"/>
				<polygon fill="#254053" points="1433.675,17.279 1433.555,25.789 1428.945,353.579 1428.825,361.859 1420.555,361.859 
					1367.455,361.859 1360.274,361.859 1359.165,354.76 1326.905,148.869 1326.905,353.47 1326.905,361.859 1318.515,361.859 
					1291.285,361.859 1282.885,361.859 1282.885,353.47 1282.885,25.669 1282.885,17.279 1291.285,17.279 1344.835,17.279 
					1352.145,17.279 1353.145,24.52 1382.795,239.27 1390.005,25.379 1390.285,17.279 1398.395,17.279 1425.165,17.279 				"/>
				<path fill="#254053" d="M1210.024,208.739l2.57-153.73l-8.49,1.97v152.72L1210.024,208.739z M1272.415,352.979l0.51,8.88h-8.88
					h-20.32h-7.33l-0.979-7.271l-15.08-111.43l-22.271,10.58l-9.699,100.53l-0.73,7.58h-7.62h-28.62h-8.939l0.56-8.92l20.78-327.791
					l0.5-7.86h7.87h72.95h7.92l0.45,7.9L1272.415,352.979z"/>
				<polygon fill="#254053" points="1143.305,17.279 1142.185,26.659 1102.935,354.459 1102.175,360.799 1095.865,361.76 
					1065.395,366.379 1057.175,367.619 1055.854,359.409 1002.295,27 1000.735,17.279 1010.585,17.279 1047.055,17.279 
					1054.555,17.279 1055.395,24.729 1079.325,237.72 1095.475,25.029 1096.064,17.279 1103.835,17.279 1133.854,17.279 				"/>
				<polygon fill="#254053" points="995.075,17.279 994.965,25.77 990.814,353.569 990.705,361.85 982.425,361.85 948.255,361.85 
					939.865,361.85 939.865,353.459 939.865,70.589 932.095,49.849 931.555,48.429 931.555,46.909 931.555,35.469 932.115,31.429 
					933.435,21.889 931.555,21.889 931.555,17.279 939.945,17.279 986.575,17.279 				"/>
				<polygon fill="#254053" points="931.555,25.669 931.555,35.469 887.335,354.619 886.325,361.85 879.015,361.85 830.545,361.85 
					822.814,361.85 822.175,354.159 794.935,26.359 794.185,17.279 803.295,17.279 832.385,17.279 840.075,17.279 840.745,24.939 
					861.695,264.079 884.985,29.449 885.735,21.889 893.335,21.889 923.795,21.889 931.555,21.889 				"/>
				<polygon fill="#254053" points="933.435,21.889 932.115,31.429 931.555,35.469 931.555,25.669 931.555,21.889 				"/>
			</g>
			<g>
			</g>
		</g>
	</g>
</g>
</svg>
