<?xml version="1.0" encoding="utf-8"?>
<!-- Generator: Adobe Illustrator 15.0.0, SVG Export Plug-In . SVG Version: 6.00 Build 0)  -->
<!DOCTYPE svg PUBLIC "-//W3C//DTD SVG 1.1//EN" "http://www.w3.org/Graphics/SVG/1.1/DTD/svg11.dtd">
<svg version="1.1" id="Calque_1" xmlns="http://www.w3.org/2000/svg" xmlns:xlink="http://www.w3.org/1999/xlink" x="0px" y="0px"
	 width="785.755px" height="364.059px" viewBox="785.755 0 785.755 364.059" enable-background="new 785.755 0 785.755 364.059"
	 xml:space="preserve">
<polygon fill="#9F502F" stroke="#254053" stroke-width="7.4762" stroke-miterlimit="10" points="-62.885,-565.555 
	-123.909,-460.484 -0.483,-460.484 "/>
<g>
	<g>
		<path fill="#254053" d="M832.383,25.667l27.705,316.256h2.308l30.937-311.642H923.8l-44.782,323.184H830.54L803.3,25.667H832.383
			 M840.07,17.277h-7.688H803.3h-9.116l0.755,9.084l27.24,327.799l0.641,7.693h7.722h48.478h7.309l1.003-7.237l44.78-323.183
			l1.321-9.541H923.8h-30.469h-7.599l-0.75,7.561L861.69,264.081L840.741,24.935L840.07,17.277L840.07,17.277z"/>
	</g>
	<g>
		<path fill="#254053" d="M986.579,25.667l-4.155,327.798h-34.165V69.068l-8.311-22.161v-21.24H986.579 M995.076,17.277h-8.497
			h-46.631h-8.391v8.39v21.24v1.521l0.534,1.425l7.776,20.736v282.875v8.39h8.39h34.165h8.284l0.104-8.282l4.155-327.798
			L995.076,17.277L995.076,17.277z"/>
	</g>
	<g>
		<path fill="#254053" d="M1133.853,25.667l-39.244,327.798l-30.472,4.614l-53.556-332.412h36.474l32.781,291.783h1.844
			l22.16-291.783H1133.853 M1143.307,17.277h-9.454h-30.013h-7.776l-0.59,7.754l-16.151,212.688l-23.93-212.989l-0.838-7.453h-7.5
			h-36.474h-9.85l1.565,9.725l53.556,332.412l1.322,8.205l8.217-1.244l30.472-4.615l6.314-0.956l0.759-6.342l39.245-327.798
			L1143.307,17.277L1143.307,17.277z"/>
	</g>
	<g>
		<path fill="#254053" d="M1245.113,25.667l18.927,327.798h-20.313l-16.619-122.813l-36.938,17.548l-10.156,105.265h-28.625
			l20.778-327.798H1245.113 M1198.484,219.113l17.082-2.771c1.846,0,2.769-0.925,2.769-2.772l2.771-165.742
			c0-1.849-0.924-2.768-2.771-2.768l-19.851,4.616c-1.849,0.92-2.771,2.466-2.771,4.614v162.519
			C1195.714,218.35,1196.637,219.113,1198.484,219.113 M1253.033,17.277h-7.92h-72.944h-7.875l-0.498,7.859l-20.778,327.797
			l-0.564,8.921h8.938h28.625h7.619l0.732-7.584l9.699-100.531l22.268-10.578l15.079,111.43l0.982,7.266h7.332h20.313h8.889
			l-0.513-8.873l-18.927-327.798L1253.033,17.277L1253.033,17.277z M1204.104,56.983l8.49-1.974l-2.569,153.733l-5.921,0.96V56.983
			L1204.104,56.983z"/>
	</g>
	<g>
		<path fill="#254053" d="M1425.168,25.667l-4.615,327.798h-53.096l-47.093-300.559h-1.846v300.559h-27.238V25.667h53.554
			l41.553,301.021h1.849l10.156-301.021H1425.168 M1433.677,17.277h-8.509h-26.776h-8.11l-0.273,8.106l-7.218,213.889
			L1353.146,24.52l-1-7.242h-7.312h-53.554h-8.391v8.39v327.798v8.391h8.391h27.238h8.39v-8.391V148.873l32.26,205.891l1.111,7.092
			h7.178h53.096h8.272l0.115-8.271l4.615-327.798L1433.677,17.277L1433.677,17.277z"/>
	</g>
	<g>
		<path fill="#254053" d="M1453.793,25.667l95.563,6.462l2.312,29.088h-40.629v292.248h-39.242l9.235-283.939l-33.245-11.077
			L1453.793,25.667 M1446.89,16.791l-1.349,7.363l-6.008,32.781l-1.313,7.169l6.914,2.304l27.309,9.099l-9.031,277.687l-0.281,8.662
			h8.667h39.242h8.39v-8.391V69.606h32.239h9.083l-0.72-9.055l-2.313-29.088l-0.573-7.217l-7.224-0.489l-95.563-6.462
			L1446.89,16.791L1446.89,16.791z"/>
	</g>
</g>
</svg>
