<?xml version="1.0" encoding="utf-8"?>
<!-- Generator: Adobe Illustrator 15.0.0, SVG Export Plug-In . SVG Version: 6.00 Build 0)  -->
<!DOCTYPE svg PUBLIC "-//W3C//DTD SVG 1.0//EN" "http://www.w3.org/TR/2001/REC-SVG-20010904/DTD/svg10.dtd">
<svg version="1.0" id="Calque_1" xmlns="http://www.w3.org/2000/svg" xmlns:xlink="http://www.w3.org/1999/xlink" x="0px" y="0px"
	 width="1483.342px" height="262.978px" viewBox="0 0 1483.342 262.978" enable-background="new 0 0 1483.342 262.978"
	 xml:space="preserve">
<g>
	<path fill="#1D1D1B" d="M183.928,170.952c0,50.379-40.611,92.025-91.963,92.025H0V81.949C0,36.609,38.934,1.008,83.91,1.008
		c22.487,0,43.296,8.396,59.071,24.182c15.774,16.121,24.501,36.944,24.501,59.782c0,8.732-1.343,18.137-4.699,27.205
		C176.879,129.306,183.928,149.458,183.928,170.952z M39.271,84.972v43.327h52.022c9.063,0,17.454-6.382,24.837-13.771
		c7.385-7.389,11.748-18.136,11.748-29.556c0-12.091-4.363-23.174-12.754-31.57c-8.39-8.733-19.466-13.1-31.213-13.1
		C59.407,40.303,39.271,60.118,39.271,84.972z M83.91,168.601h-44.64v53.402h61.085c11.748,0,22.823-5.373,31.214-15.113
		c8.391-9.74,13.09-22.84,13.09-35.938c0-10.075-2.014-18.137-4.363-24.182C124.521,160.204,104.718,168.601,83.91,168.601z"/>
	<path fill="#1D1D1B" d="M418.773,222.339v40.639H283.177V2.015h38.26v220.324H418.773z"/>
	<path fill="#1D1D1B" d="M694.06,262.978h-39.268V155.839c-13.427,8.061-28.867,12.427-44.641,12.427
		c-16.111,0-31.55-4.366-44.305-12.427v107.139h-39.939V80.942c0-21.831,10.069-42.318,25.844-57.432S588.335,0,610.152,0
		c21.814,0,42.625,8.397,58.399,23.51c15.776,15.113,24.837,35.601,25.509,57.768V262.978z M578.938,52.394
		c-8.391,8.396-13.091,19.816-13.091,31.571c0,11.754,4.7,23.173,13.091,31.57c8.39,8.733,19.466,13.435,31.214,13.435
		s23.159-4.702,31.55-13.435c8.39-8.396,13.091-19.815,13.091-31.57c0-12.092-4.701-23.175-13.091-31.571
		c-8.391-8.062-19.468-12.763-31.55-12.763C598.404,39.631,587.328,44.333,578.938,52.394z"/>
	<path fill="#1D1D1B" d="M888.125,2.015v260.962h-38.262V2.015H888.125z"/>
	<path fill="#1D1D1B" d="M1207.215,197.149c2.684,17.464,4.027,36.272,4.027,61.125v4.703h-38.6v-4.703
		c0-21.159-1.005-37.279-3.021-51.722c-2.684-16.456-7.046-30.227-13.089-42.318c-9.396,3.358-18.795,5.038-28.528,5.038
		c-15.103,0-30.543-4.365-43.968-12.762v106.467h-39.269V82.621c1.006-21.496,10.068-41.646,25.507-56.76
		c15.776-15.114,36.248-23.51,57.729-23.51c22.151,0,43.296,8.732,59.072,24.518c15.773,15.785,24.166,36.944,24.166,59.11
		c0,11.419-2.015,22.503-6.714,32.914c-3.691,8.733-9.062,16.793-15.774,23.846C1197.48,158.524,1203.523,176.326,1207.215,197.149z
		 M1097.125,54.745c-8.391,8.396-13.089,19.479-13.089,31.234c0,11.755,4.698,22.503,13.089,30.9
		c8.056,8.396,19.133,12.762,30.879,12.762c24.166,0,43.634-19.479,43.634-43.662c0-11.755-4.363-22.838-12.756-31.234
		c-8.054-8.06-19.131-12.763-30.878-12.763C1116.258,41.982,1105.181,46.685,1097.125,54.745z"/>
	<path fill="#1D1D1B" d="M1483.342,1.343v103.781h-19.466c-14.435,0-28.529,2.015-42.627,6.046
		c-5.035,1.679-9.063,3.358-13.424,5.038v146.77h-39.271V115.872c-4.026-1.68-8.726-3.359-13.426-4.366v-0.335
		c-14.433-4.031-29.2-6.046-44.975-6.046h-19.469V1.343h38.935v66.165c20.475,1.679,39.942,6.717,58.401,14.779
		c18.126-7.725,36.92-12.763,56.722-14.779V1.343H1483.342z"/>
</g>
</svg>
