<?xml version="1.0" encoding="utf-8"?>
<!-- Generator: Adobe Illustrator 15.0.0, SVG Export Plug-In . SVG Version: 6.00 Build 0)  -->
<!DOCTYPE svg PUBLIC "-//W3C//DTD SVG 1.0//EN" "http://www.w3.org/TR/2001/REC-SVG-20010904/DTD/svg10.dtd">
<svg version="1.0" id="Calque_1" xmlns="http://www.w3.org/2000/svg" xmlns:xlink="http://www.w3.org/1999/xlink" x="0px" y="0px"
	 width="1480.378px" height="261.951px" viewBox="0 0 1480.378 261.951" enable-background="new 0 0 1480.378 261.951"
	 xml:space="preserve">
<g>
	<path fill="#1D1D1B" d="M177.979,2.008v5.018c0,41.484-3.011,78.619-9.703,110.066c-6.356,31.782-16.393,58.545-29.44,79.623
		c-26.763,43.49-66.91,65.236-119.434,65.236H0V2.008h39.142v219.463c15.389-2.342,28.771-8.029,40.48-16.393
		c13.047-9.701,24.087-23.418,32.786-40.814c8.699-17.73,15.389-39.812,19.738-65.906c4.684-26.095,6.691-56.874,6.691-91.332V2.008
		H177.979z"/>
	<path fill="#1D1D1B" d="M384.73,261.951h-39.142V155.23c-13.382,8.029-28.771,12.379-44.495,12.379
		c-16.058,0-31.448-4.35-44.16-12.379v106.721h-39.812V80.626c0-21.745,10.037-42.153,25.761-57.207
		C258.605,8.364,279.347,0,301.093,0c21.746,0,42.488,8.364,58.212,23.419c15.722,15.054,24.756,35.462,25.425,57.542V261.951z
		 M269.98,52.19c-8.363,8.364-13.047,19.738-13.047,31.448c0,11.708,4.684,23.083,13.047,31.447
		c8.364,8.698,19.403,13.382,31.113,13.382s23.084-4.684,31.448-13.382c8.363-8.364,13.047-19.739,13.047-31.447
		c0-12.044-4.684-23.083-13.047-31.448c-8.364-8.029-19.403-12.713-31.448-12.713C289.383,39.477,278.344,44.161,269.98,52.19z"/>
	<path fill="#1D1D1B" d="M556.351,221.471v40.48H421.194V2.008h38.138v219.463H556.351z"/>
	<path fill="#1D1D1B" d="M634.635,223.479h119.1v38.473H595.828V81.295c0-21.411,11.376-44.829,28.771-59.549
		c14.72-12.713,33.455-19.739,53.862-19.739c32.451,0,60.554,18.4,74.938,48.175l2.343,5.018l-36.801,13.382l-2.007-4.014
		c-6.691-14.051-22.415-23.753-38.808-23.753c-7.359,0-14.72,1.672-21.078,5.687c-6.355,3.346-11.374,8.363-15.389,14.386
		c-4.684,7.695-7.024,15.389-7.024,23.418v45.498h69.92v39.812h-69.92V223.479z"/>
	<path fill="#1D1D1B" d="M984.909,2.008v259.943h-33.454c-17.396,0-31.782-4.014-43.158-11.709
		c-10.369-7.025-18.064-17.062-24.086-30.777c-10.371-24.088-12.379-55.535-14.052-85.645c-1.672-26.096-3.01-50.852-9.701-69.251
		c-3.68-9.033-8.028-15.724-13.716-20.408c-5.353-4.015-11.71-6.357-19.403-7.025v224.816H789.2V2.008h33.789
		c17.396,0,32.45,4.015,43.824,12.043c10.706,7.36,18.735,17.731,24.758,31.448c10.706,24.757,13.047,56.873,15.389,87.651
		c2.008,25.426,3.681,49.513,10.038,67.244c6.021,16.727,15.389,25.091,29.773,26.43V2.008H984.909z"/>
	<path fill="#1D1D1B" d="M1177.611,2.677v39.142h-59.884v220.133h-39.144V41.818h-25.426v29.441h-36.13V2.677H1177.611z"/>
	<path fill="#1D1D1B" d="M1246.864,2.008v259.943h-38.14V2.008H1246.864z"/>
	<path fill="#1D1D1B" d="M1480.378,2.008v259.943h-33.455c-17.396,0-31.78-4.014-43.157-11.709
		c-10.369-7.025-18.065-17.062-24.087-30.777c-10.37-24.088-12.377-55.535-14.051-85.645c-1.672-26.096-3.012-50.852-9.701-69.251
		c-3.68-9.033-8.029-15.724-13.717-20.408c-5.352-4.015-11.709-6.357-19.403-7.025v224.816h-38.14V2.008h33.79
		c17.396,0,32.451,4.015,43.825,12.043c10.706,7.36,18.734,17.731,24.757,31.448c10.706,24.757,13.047,56.873,15.389,87.651
		c2.009,25.426,3.681,49.513,10.037,67.244c6.021,16.727,15.39,25.091,29.775,26.43V2.008H1480.378z"/>
</g>
</svg>
